{
    "patcher": {
        "fileversion": 1,
        "appversion": {
            "major": 9,
            "minor": 1,
            "revision": 1,
            "architecture": "x64",
            "modernui": 1
        },
        "classnamespace": "box",
        "rect": [ 34.0, 87.0, 1980.0, 1062.0 ],
        "boxes": [
            {
                "box": {
                    "id": "obj-57",
                    "maxclass": "newobj",
                    "numinlets": 2,
                    "numoutlets": 1,
                    "outlettype": [ "multichannelsignal" ],
                    "patching_rect": [ 956.0000284910202, 432.66667956113815, 70.0, 22.0 ],
                    "text": "mc.pack~ 2"
                }
            },
            {
                "box": {
                    "id": "obj-56",
                    "maxclass": "newobj",
                    "numinlets": 2,
                    "numoutlets": 1,
                    "outlettype": [ "multichannelsignal" ],
                    "patching_rect": [ 799.333357155323, 406.0000120997429, 70.0, 22.0 ],
                    "text": "mc.pack~ 2"
                }
            },
            {
                "box": {
                    "id": "obj-55",
                    "maxclass": "newobj",
                    "numinlets": 2,
                    "numoutlets": 1,
                    "outlettype": [ "multichannelsignal" ],
                    "patching_rect": [ 658.0000196099281, 406.0000120997429, 70.0, 22.0 ],
                    "text": "mc.pack~ 2"
                }
            },
            {
                "box": {
                    "data": {
                        "clips": [
                            {
                                "absolutepath": "spatial_test_04.wav",
                                "filename": "spatial_test_04.wav",
                                "filekind": "audiofile",
                                "id": "u172012919",
                                "loop": 0,
                                "content_state": {                                }
                            }
                        ]
                    },
                    "id": "obj-54",
                    "maxclass": "playlist~",
                    "mode": "basic",
                    "numinlets": 1,
                    "numoutlets": 5,
                    "outlettype": [ "signal", "signal", "signal", "", "dictionary" ],
                    "parameter_enable": 0,
                    "patching_rect": [ 1251.0, 355.0, 150.0, 30.0 ],
                    "quality": "basic",
                    "saved_attribute_attributes": {
                        "candicane2": {
                            "expression": ""
                        },
                        "candicane3": {
                            "expression": ""
                        },
                        "candicane4": {
                            "expression": ""
                        },
                        "candicane5": {
                            "expression": ""
                        },
                        "candicane6": {
                            "expression": ""
                        },
                        "candicane7": {
                            "expression": ""
                        },
                        "candicane8": {
                            "expression": ""
                        }
                    }
                }
            },
            {
                "box": {
                    "data": {
                        "clips": [
                            {
                                "absolutepath": "spatial_test_03.wav",
                                "filename": "spatial_test_03.wav",
                                "filekind": "audiofile",
                                "id": "u645012460",
                                "loop": 1,
                                "content_state": {
                                    "loop": 1
                                }
                            }
                        ]
                    },
                    "id": "obj-52",
                    "maxclass": "playlist~",
                    "mode": "basic",
                    "numinlets": 1,
                    "numoutlets": 5,
                    "outlettype": [ "signal", "signal", "signal", "", "dictionary" ],
                    "parameter_enable": 0,
                    "patching_rect": [ 949.0, 379.0, 150.0, 30.0 ],
                    "quality": "basic",
                    "saved_attribute_attributes": {
                        "candicane2": {
                            "expression": ""
                        },
                        "candicane3": {
                            "expression": ""
                        },
                        "candicane4": {
                            "expression": ""
                        },
                        "candicane5": {
                            "expression": ""
                        },
                        "candicane6": {
                            "expression": ""
                        },
                        "candicane7": {
                            "expression": ""
                        },
                        "candicane8": {
                            "expression": ""
                        }
                    }
                }
            },
            {
                "box": {
                    "data": {
                        "clips": [
                            {
                                "absolutepath": "spatial_test_02.wav",
                                "filename": "spatial_test_02.wav",
                                "filekind": "audiofile",
                                "id": "u313001036",
                                "loop": 1,
                                "content_state": {
                                    "loop": 1
                                }
                            }
                        ]
                    },
                    "id": "obj-50",
                    "maxclass": "playlist~",
                    "mode": "basic",
                    "numinlets": 1,
                    "numoutlets": 5,
                    "outlettype": [ "signal", "signal", "signal", "", "dictionary" ],
                    "parameter_enable": 0,
                    "patching_rect": [ 861.0, 287.0, 150.0, 30.0 ],
                    "quality": "basic",
                    "saved_attribute_attributes": {
                        "candicane2": {
                            "expression": ""
                        },
                        "candicane3": {
                            "expression": ""
                        },
                        "candicane4": {
                            "expression": ""
                        },
                        "candicane5": {
                            "expression": ""
                        },
                        "candicane6": {
                            "expression": ""
                        },
                        "candicane7": {
                            "expression": ""
                        },
                        "candicane8": {
                            "expression": ""
                        }
                    }
                }
            },
            {
                "box": {
                    "data": {
                        "clips": [
                            {
                                "absolutepath": "spatial_test_01.wav",
                                "filename": "spatial_test_01.wav",
                                "filekind": "audiofile",
                                "id": "u494001015",
                                "loop": 1,
                                "content_state": {
                                    "loop": 1
                                }
                            }
                        ]
                    },
                    "id": "obj-48",
                    "maxclass": "playlist~",
                    "mode": "basic",
                    "numinlets": 1,
                    "numoutlets": 5,
                    "outlettype": [ "signal", "signal", "signal", "", "dictionary" ],
                    "parameter_enable": 0,
                    "patching_rect": [ 666.6666895747185, 356.00001060962677, 150.0, 30.0 ],
                    "quality": "basic",
                    "saved_attribute_attributes": {
                        "candicane2": {
                            "expression": ""
                        },
                        "candicane3": {
                            "expression": ""
                        },
                        "candicane4": {
                            "expression": ""
                        },
                        "candicane5": {
                            "expression": ""
                        },
                        "candicane6": {
                            "expression": ""
                        },
                        "candicane7": {
                            "expression": ""
                        },
                        "candicane8": {
                            "expression": ""
                        }
                    }
                }
            },
            {
                "box": {
                    "id": "obj-46",
                    "maxclass": "newobj",
                    "numinlets": 1,
                    "numoutlets": 0,
                    "patching_rect": [ 475.8333474993706, 342.66667687892914, 71.0, 22.0 ],
                    "text": "s spat_data"
                }
            },
            {
                "box": {
                    "id": "obj-45",
                    "maxclass": "newobj",
                    "numinlets": 1,
                    "numoutlets": 0,
                    "patching_rect": [ 475.3333474993706, 279.3333416581154, 72.0, 22.0 ],
                    "text": "s oper_data"
                }
            },
            {
                "box": {
                    "id": "obj-42",
                    "maxclass": "newobj",
                    "numinlets": 1,
                    "numoutlets": 1,
                    "outlettype": [ "multichannelsignal" ],
                    "patcher": {
                        "fileversion": 1,
                        "appversion": {
                            "major": 9,
                            "minor": 1,
                            "revision": 1,
                            "architecture": "x64",
                            "modernui": 1
                        },
                        "classnamespace": "box",
                        "rect": [ 59.0, 106.0, 454.0, 466.0 ],
                        "visible": 1,
                        "boxes": [
                            {
                                "box": {
                                    "id": "obj-46",
                                    "maxclass": "newobj",
                                    "numinlets": 0,
                                    "numoutlets": 1,
                                    "outlettype": [ "" ],
                                    "patching_rect": [ 137.0, 149.0, 69.0, 22.0 ],
                                    "text": "r spat_data"
                                }
                            },
                            {
                                "box": {
                                    "id": "obj-45",
                                    "maxclass": "newobj",
                                    "numinlets": 0,
                                    "numoutlets": 1,
                                    "outlettype": [ "" ],
                                    "patching_rect": [ 50.0, 57.0, 70.0, 22.0 ],
                                    "text": "r oper_data"
                                }
                            },
                            {
                                "box": {
                                    "id": "obj-2",
                                    "maxclass": "newobj",
                                    "numinlets": 1,
                                    "numoutlets": 4,
                                    "outlettype": [ "", "", "", "" ],
                                    "patching_rect": [ 50.0, 100.0, 65.0, 22.0 ],
                                    "saved_object_attributes": {
                                        "parameter_enable": 0
                                    },
                                    "text": "spat5.oper"
                                }
                            },
                            {
                                "box": {
                                    "id": "obj-1",
                                    "linecount": 2,
                                    "maxclass": "newobj",
                                    "numinlets": 1,
                                    "numoutlets": 2,
                                    "outlettype": [ "multichannelsignal", "" ],
                                    "patching_rect": [ 50.0, 227.33333712816238, 284.0, 35.0 ],
                                    "saved_object_attributes": {
                                        "parameter_enable": 0
                                    },
                                    "text": "spat5.spat~ @inputs 1 @outputs 4 @mc 1 @mode stereo"
                                }
                            },
                            {
                                "box": {
                                    "comment": "",
                                    "id": "obj-32",
                                    "index": 1,
                                    "maxclass": "inlet",
                                    "numinlets": 0,
                                    "numoutlets": 1,
                                    "outlettype": [ "multichannelsignal" ],
                                    "patching_rect": [ 93.0, 141.0, 30.0, 30.0 ]
                                }
                            },
                            {
                                "box": {
                                    "comment": "",
                                    "id": "obj-34",
                                    "index": 1,
                                    "maxclass": "outlet",
                                    "numinlets": 1,
                                    "numoutlets": 0,
                                    "patching_rect": [ 49.999996500629436, 322.3333366686287, 30.0, 30.0 ]
                                }
                            }
                        ],
                        "lines": [
                            {
                                "patchline": {
                                    "destination": [ "obj-34", 0 ],
                                    "source": [ "obj-1", 0 ]
                                }
                            },
                            {
                                "patchline": {
                                    "destination": [ "obj-1", 0 ],
                                    "source": [ "obj-2", 0 ]
                                }
                            },
                            {
                                "patchline": {
                                    "destination": [ "obj-1", 0 ],
                                    "source": [ "obj-32", 0 ]
                                }
                            },
                            {
                                "patchline": {
                                    "destination": [ "obj-2", 0 ],
                                    "source": [ "obj-45", 0 ]
                                }
                            },
                            {
                                "patchline": {
                                    "destination": [ "obj-1", 0 ],
                                    "source": [ "obj-46", 0 ]
                                }
                            }
                        ]
                    },
                    "patching_rect": [ 915.3333606123924, 466.00001388788223, 68.6666687130928, 22.0 ],
                    "text": "p"
                }
            },
            {
                "box": {
                    "id": "obj-43",
                    "maxclass": "newobj",
                    "numinlets": 1,
                    "numoutlets": 0,
                    "patching_rect": [ 915.3333606123924, 669.3333532810211, 121.0, 22.0 ],
                    "text": "mc.dac~ 44 45 46 47"
                }
            },
            {
                "box": {
                    "id": "obj-44",
                    "lastchannelcount": 4,
                    "maxclass": "mc.live.gain~",
                    "numinlets": 1,
                    "numoutlets": 4,
                    "outlettype": [ "multichannelsignal", "", "float", "list" ],
                    "parameter_enable": 1,
                    "patching_rect": [ 915.3333606123924, 516.6666820645332, 48.0, 136.0 ],
                    "saved_attribute_attributes": {
                        "valueof": {
                            "parameter_longname": "mc.live.gain~[3]",
                            "parameter_mmax": 6.0,
                            "parameter_mmin": -70.0,
                            "parameter_modmode": 3,
                            "parameter_shortname": "mc.live.gain~",
                            "parameter_type": 0,
                            "parameter_unitstyle": 4
                        }
                    },
                    "varname": "mc.live.gain~[3]"
                }
            },
            {
                "box": {
                    "id": "obj-39",
                    "maxclass": "newobj",
                    "numinlets": 1,
                    "numoutlets": 1,
                    "outlettype": [ "multichannelsignal" ],
                    "patcher": {
                        "fileversion": 1,
                        "appversion": {
                            "major": 9,
                            "minor": 1,
                            "revision": 1,
                            "architecture": "x64",
                            "modernui": 1
                        },
                        "classnamespace": "box",
                        "rect": [ 59.0, 106.0, 454.0, 466.0 ],
                        "visible": 1,
                        "boxes": [
                            {
                                "box": {
                                    "id": "obj-46",
                                    "maxclass": "newobj",
                                    "numinlets": 0,
                                    "numoutlets": 1,
                                    "outlettype": [ "" ],
                                    "patching_rect": [ 137.0, 149.0, 69.0, 22.0 ],
                                    "text": "r spat_data"
                                }
                            },
                            {
                                "box": {
                                    "id": "obj-45",
                                    "maxclass": "newobj",
                                    "numinlets": 0,
                                    "numoutlets": 1,
                                    "outlettype": [ "" ],
                                    "patching_rect": [ 50.0, 57.0, 70.0, 22.0 ],
                                    "text": "r oper_data"
                                }
                            },
                            {
                                "box": {
                                    "id": "obj-2",
                                    "maxclass": "newobj",
                                    "numinlets": 1,
                                    "numoutlets": 4,
                                    "outlettype": [ "", "", "", "" ],
                                    "patching_rect": [ 50.0, 100.0, 65.0, 22.0 ],
                                    "saved_object_attributes": {
                                        "parameter_enable": 0
                                    },
                                    "text": "spat5.oper"
                                }
                            },
                            {
                                "box": {
                                    "id": "obj-1",
                                    "linecount": 2,
                                    "maxclass": "newobj",
                                    "numinlets": 1,
                                    "numoutlets": 2,
                                    "outlettype": [ "multichannelsignal", "" ],
                                    "patching_rect": [ 50.0, 227.33333712816238, 284.0, 35.0 ],
                                    "saved_object_attributes": {
                                        "parameter_enable": 0
                                    },
                                    "text": "spat5.spat~ @inputs 1 @outputs 4 @mc 1 @mode stereo"
                                }
                            },
                            {
                                "box": {
                                    "comment": "",
                                    "id": "obj-32",
                                    "index": 1,
                                    "maxclass": "inlet",
                                    "numinlets": 0,
                                    "numoutlets": 1,
                                    "outlettype": [ "multichannelsignal" ],
                                    "patching_rect": [ 93.0, 141.0, 30.0, 30.0 ]
                                }
                            },
                            {
                                "box": {
                                    "comment": "",
                                    "id": "obj-34",
                                    "index": 1,
                                    "maxclass": "outlet",
                                    "numinlets": 1,
                                    "numoutlets": 0,
                                    "patching_rect": [ 49.999996500629436, 322.3333366686287, 30.0, 30.0 ]
                                }
                            }
                        ],
                        "lines": [
                            {
                                "patchline": {
                                    "destination": [ "obj-34", 0 ],
                                    "source": [ "obj-1", 0 ]
                                }
                            },
                            {
                                "patchline": {
                                    "destination": [ "obj-1", 0 ],
                                    "source": [ "obj-2", 0 ]
                                }
                            },
                            {
                                "patchline": {
                                    "destination": [ "obj-1", 0 ],
                                    "source": [ "obj-32", 0 ]
                                }
                            },
                            {
                                "patchline": {
                                    "destination": [ "obj-2", 0 ],
                                    "source": [ "obj-45", 0 ]
                                }
                            },
                            {
                                "patchline": {
                                    "destination": [ "obj-1", 0 ],
                                    "source": [ "obj-46", 0 ]
                                }
                            }
                        ]
                    },
                    "patching_rect": [ 768.6666895747185, 466.00001388788223, 68.6666687130928, 22.0 ],
                    "text": "p"
                }
            },
            {
                "box": {
                    "id": "obj-40",
                    "maxclass": "newobj",
                    "numinlets": 1,
                    "numoutlets": 0,
                    "patching_rect": [ 768.6666895747185, 669.3333532810211, 121.0, 22.0 ],
                    "text": "mc.dac~ 40 41 42 43"
                }
            },
            {
                "box": {
                    "id": "obj-41",
                    "lastchannelcount": 4,
                    "maxclass": "mc.live.gain~",
                    "numinlets": 1,
                    "numoutlets": 4,
                    "outlettype": [ "multichannelsignal", "", "float", "list" ],
                    "parameter_enable": 1,
                    "patching_rect": [ 768.6666895747185, 516.6666820645332, 48.0, 136.0 ],
                    "saved_attribute_attributes": {
                        "valueof": {
                            "parameter_longname": "mc.live.gain~[2]",
                            "parameter_mmax": 6.0,
                            "parameter_mmin": -70.0,
                            "parameter_modmode": 3,
                            "parameter_shortname": "mc.live.gain~",
                            "parameter_type": 0,
                            "parameter_unitstyle": 4
                        }
                    },
                    "varname": "mc.live.gain~[2]"
                }
            },
            {
                "box": {
                    "id": "obj-36",
                    "maxclass": "newobj",
                    "numinlets": 1,
                    "numoutlets": 1,
                    "outlettype": [ "multichannelsignal" ],
                    "patcher": {
                        "fileversion": 1,
                        "appversion": {
                            "major": 9,
                            "minor": 1,
                            "revision": 1,
                            "architecture": "x64",
                            "modernui": 1
                        },
                        "classnamespace": "box",
                        "rect": [ 59.0, 106.0, 454.0, 466.0 ],
                        "visible": 1,
                        "boxes": [
                            {
                                "box": {
                                    "id": "obj-46",
                                    "maxclass": "newobj",
                                    "numinlets": 0,
                                    "numoutlets": 1,
                                    "outlettype": [ "" ],
                                    "patching_rect": [ 137.0, 149.0, 69.0, 22.0 ],
                                    "text": "r spat_data"
                                }
                            },
                            {
                                "box": {
                                    "id": "obj-45",
                                    "maxclass": "newobj",
                                    "numinlets": 0,
                                    "numoutlets": 1,
                                    "outlettype": [ "" ],
                                    "patching_rect": [ 50.0, 57.0, 70.0, 22.0 ],
                                    "text": "r oper_data"
                                }
                            },
                            {
                                "box": {
                                    "id": "obj-2",
                                    "maxclass": "newobj",
                                    "numinlets": 1,
                                    "numoutlets": 4,
                                    "outlettype": [ "", "", "", "" ],
                                    "patching_rect": [ 50.0, 100.0, 65.0, 22.0 ],
                                    "saved_object_attributes": {
                                        "parameter_enable": 0
                                    },
                                    "text": "spat5.oper"
                                }
                            },
                            {
                                "box": {
                                    "id": "obj-1",
                                    "linecount": 2,
                                    "maxclass": "newobj",
                                    "numinlets": 1,
                                    "numoutlets": 2,
                                    "outlettype": [ "multichannelsignal", "" ],
                                    "patching_rect": [ 50.0, 227.33333712816238, 284.0, 35.0 ],
                                    "saved_object_attributes": {
                                        "parameter_enable": 0
                                    },
                                    "text": "spat5.spat~ @inputs 1 @outputs 4 @mc 1 @mode stereo"
                                }
                            },
                            {
                                "box": {
                                    "comment": "",
                                    "id": "obj-32",
                                    "index": 1,
                                    "maxclass": "inlet",
                                    "numinlets": 0,
                                    "numoutlets": 1,
                                    "outlettype": [ "multichannelsignal" ],
                                    "patching_rect": [ 93.0, 141.0, 30.0, 30.0 ]
                                }
                            },
                            {
                                "box": {
                                    "comment": "",
                                    "id": "obj-34",
                                    "index": 1,
                                    "maxclass": "outlet",
                                    "numinlets": 1,
                                    "numoutlets": 0,
                                    "patching_rect": [ 49.999996500629436, 322.3333366686287, 30.0, 30.0 ]
                                }
                            }
                        ],
                        "lines": [
                            {
                                "patchline": {
                                    "destination": [ "obj-34", 0 ],
                                    "source": [ "obj-1", 0 ]
                                }
                            },
                            {
                                "patchline": {
                                    "destination": [ "obj-1", 0 ],
                                    "source": [ "obj-2", 0 ]
                                }
                            },
                            {
                                "patchline": {
                                    "destination": [ "obj-1", 0 ],
                                    "source": [ "obj-32", 0 ]
                                }
                            },
                            {
                                "patchline": {
                                    "destination": [ "obj-2", 0 ],
                                    "source": [ "obj-45", 0 ]
                                }
                            },
                            {
                                "patchline": {
                                    "destination": [ "obj-1", 0 ],
                                    "source": [ "obj-46", 0 ]
                                }
                            }
                        ]
                    },
                    "patching_rect": [ 622.0000185370445, 466.00001388788223, 68.6666687130928, 22.0 ],
                    "text": "p"
                }
            },
            {
                "box": {
                    "id": "obj-37",
                    "maxclass": "newobj",
                    "numinlets": 1,
                    "numoutlets": 0,
                    "patching_rect": [ 622.0000185370445, 669.3333532810211, 121.0, 22.0 ],
                    "text": "mc.dac~ 36 37 38 39"
                }
            },
            {
                "box": {
                    "id": "obj-38",
                    "lastchannelcount": 4,
                    "maxclass": "mc.live.gain~",
                    "numinlets": 1,
                    "numoutlets": 4,
                    "outlettype": [ "multichannelsignal", "", "float", "list" ],
                    "parameter_enable": 1,
                    "patching_rect": [ 622.0000185370445, 516.6666820645332, 48.0, 136.0 ],
                    "saved_attribute_attributes": {
                        "valueof": {
                            "parameter_longname": "mc.live.gain~[1]",
                            "parameter_mmax": 6.0,
                            "parameter_mmin": -70.0,
                            "parameter_modmode": 3,
                            "parameter_shortname": "mc.live.gain~",
                            "parameter_type": 0,
                            "parameter_unitstyle": 4
                        }
                    },
                    "varname": "mc.live.gain~[1]"
                }
            },
            {
                "box": {
                    "id": "obj-35",
                    "maxclass": "newobj",
                    "numinlets": 1,
                    "numoutlets": 1,
                    "outlettype": [ "multichannelsignal" ],
                    "patcher": {
                        "fileversion": 1,
                        "appversion": {
                            "major": 9,
                            "minor": 1,
                            "revision": 1,
                            "architecture": "x64",
                            "modernui": 1
                        },
                        "classnamespace": "box",
                        "rect": [ 59.0, 106.0, 454.0, 466.0 ],
                        "visible": 1,
                        "boxes": [
                            {
                                "box": {
                                    "id": "obj-46",
                                    "maxclass": "newobj",
                                    "numinlets": 0,
                                    "numoutlets": 1,
                                    "outlettype": [ "" ],
                                    "patching_rect": [ 137.0, 149.0, 69.0, 22.0 ],
                                    "text": "r spat_data"
                                }
                            },
                            {
                                "box": {
                                    "id": "obj-45",
                                    "maxclass": "newobj",
                                    "numinlets": 0,
                                    "numoutlets": 1,
                                    "outlettype": [ "" ],
                                    "patching_rect": [ 50.0, 57.0, 70.0, 22.0 ],
                                    "text": "r oper_data"
                                }
                            },
                            {
                                "box": {
                                    "id": "obj-2",
                                    "maxclass": "newobj",
                                    "numinlets": 1,
                                    "numoutlets": 4,
                                    "outlettype": [ "", "", "", "" ],
                                    "patching_rect": [ 50.0, 100.0, 65.0, 22.0 ],
                                    "saved_object_attributes": {
                                        "parameter_enable": 0
                                    },
                                    "text": "spat5.oper"
                                }
                            },
                            {
                                "box": {
                                    "id": "obj-1",
                                    "linecount": 2,
                                    "maxclass": "newobj",
                                    "numinlets": 1,
                                    "numoutlets": 2,
                                    "outlettype": [ "multichannelsignal", "" ],
                                    "patching_rect": [ 50.0, 227.33333712816238, 284.0, 35.0 ],
                                    "saved_object_attributes": {
                                        "parameter_enable": 0
                                    },
                                    "text": "spat5.spat~ @inputs 1 @outputs 4 @mc 1 @mode stereo"
                                }
                            },
                            {
                                "box": {
                                    "comment": "",
                                    "id": "obj-32",
                                    "index": 1,
                                    "maxclass": "inlet",
                                    "numinlets": 0,
                                    "numoutlets": 1,
                                    "outlettype": [ "multichannelsignal" ],
                                    "patching_rect": [ 93.0, 141.0, 30.0, 30.0 ]
                                }
                            },
                            {
                                "box": {
                                    "comment": "",
                                    "id": "obj-34",
                                    "index": 1,
                                    "maxclass": "outlet",
                                    "numinlets": 1,
                                    "numoutlets": 0,
                                    "patching_rect": [ 49.999996500629436, 322.3333366686287, 30.0, 30.0 ]
                                }
                            }
                        ],
                        "lines": [
                            {
                                "patchline": {
                                    "destination": [ "obj-34", 0 ],
                                    "source": [ "obj-1", 0 ]
                                }
                            },
                            {
                                "patchline": {
                                    "destination": [ "obj-1", 0 ],
                                    "source": [ "obj-2", 0 ]
                                }
                            },
                            {
                                "patchline": {
                                    "destination": [ "obj-1", 0 ],
                                    "source": [ "obj-32", 0 ]
                                }
                            },
                            {
                                "patchline": {
                                    "destination": [ "obj-2", 0 ],
                                    "source": [ "obj-45", 0 ]
                                }
                            },
                            {
                                "patchline": {
                                    "destination": [ "obj-1", 0 ],
                                    "source": [ "obj-46", 0 ]
                                }
                            }
                        ]
                    },
                    "patching_rect": [ 475.3333474993706, 466.00001388788223, 68.6666687130928, 22.0 ],
                    "text": "p"
                }
            },
            {
                "box": {
                    "id": "obj-31",
                    "maxclass": "newobj",
                    "numinlets": 2,
                    "numoutlets": 1,
                    "outlettype": [ "multichannelsignal" ],
                    "patching_rect": [ 180.6666720509529, 406.0000120997429, 70.0, 22.0 ],
                    "text": "mc.pack~ 2"
                }
            },
            {
                "box": {
                    "clipheight": 29.0,
                    "data": {
                        "clips": [
                            {
                                "absolutepath": "video_join_soprano.wav",
                                "filename": "video_join_soprano.wav",
                                "filekind": "audiofile",
                                "id": "u229004095",
                                "loop": 0,
                                "content_state": {                                }
                            },
                            {
                                "absolutepath": "video_join_tenor.wav",
                                "filename": "video_join_tenor.wav",
                                "filekind": "audiofile",
                                "id": "u652005528",
                                "loop": 1,
                                "content_state": {
                                    "loop": 1
                                }
                            }
                        ]
                    },
                    "id": "obj-28",
                    "maxclass": "playlist~",
                    "mode": "basic",
                    "numinlets": 1,
                    "numoutlets": 5,
                    "outlettype": [ "signal", "signal", "signal", "", "dictionary" ],
                    "parameter_enable": 0,
                    "patching_rect": [ 180.6666720509529, 315.0, 150.0, 60.0 ],
                    "quality": "basic",
                    "saved_attribute_attributes": {
                        "candicane2": {
                            "expression": ""
                        },
                        "candicane3": {
                            "expression": ""
                        },
                        "candicane4": {
                            "expression": ""
                        },
                        "candicane5": {
                            "expression": ""
                        },
                        "candicane6": {
                            "expression": ""
                        },
                        "candicane7": {
                            "expression": ""
                        },
                        "candicane8": {
                            "expression": ""
                        }
                    }
                }
            },
            {
                "box": {
                    "id": "obj-26",
                    "maxclass": "toggle",
                    "numinlets": 1,
                    "numoutlets": 1,
                    "outlettype": [ "int" ],
                    "parameter_enable": 0,
                    "patching_rect": [ 372.0000110864639, 112.66667002439499, 24.0, 24.0 ]
                }
            },
            {
                "box": {
                    "id": "obj-24",
                    "maxclass": "message",
                    "numinlets": 2,
                    "numoutlets": 1,
                    "outlettype": [ "" ],
                    "patching_rect": [ 391.3333449959755, 140.0, 137.0, 22.0 ],
                    "text": "/source/1/divergence $1"
                }
            },
            {
                "box": {
                    "id": "obj-21",
                    "maxclass": "message",
                    "numinlets": 2,
                    "numoutlets": 1,
                    "outlettype": [ "" ],
                    "patching_rect": [ 222.00000661611557, 198.66667258739471, 55.0, 22.0 ],
                    "text": "/mute $1"
                }
            },
            {
                "box": {
                    "activebgoncolor": [ 0.996078431372549, 0.192156862745098, 0.192156862745098, 1.0 ],
                    "id": "obj-22",
                    "maxclass": "live.text",
                    "numinlets": 1,
                    "numoutlets": 2,
                    "outlettype": [ "", "" ],
                    "parameter_enable": 1,
                    "patching_rect": [ 222.00000661611557, 172.66667181253433, 40.0, 20.0 ],
                    "saved_attribute_attributes": {
                        "activebgoncolor": {
                            "expression": ""
                        },
                        "valueof": {
                            "parameter_enum": [ "val1", "val2" ],
                            "parameter_longname": "live.toggle[101]",
                            "parameter_mmax": 1,
                            "parameter_modmode": 0,
                            "parameter_shortname": "live.toggle[2]",
                            "parameter_type": 2
                        }
                    },
                    "text": "mute",
                    "texton": "mute",
                    "varname": "live.toggle[3]"
                }
            },
            {
                "box": {
                    "id": "obj-29",
                    "maxclass": "message",
                    "numinlets": 2,
                    "numoutlets": 1,
                    "outlettype": [ "" ],
                    "patching_rect": [ 150.66667115688324, 198.66667258739471, 65.0, 22.0 ],
                    "text": "/spread $1"
                }
            },
            {
                "box": {
                    "focusbordercolor": [ 0.0, 0.019608, 0.078431, 0.0 ],
                    "id": "obj-30",
                    "maxclass": "live.dial",
                    "numinlets": 1,
                    "numoutlets": 2,
                    "outlettype": [ "", "float" ],
                    "parameter_enable": 1,
                    "patching_rect": [ 150.66667115688324, 144.6666709780693, 44.0, 48.0 ],
                    "saved_attribute_attributes": {
                        "focusbordercolor": {
                            "expression": ""
                        },
                        "valueof": {
                            "parameter_longname": "live.dial[36]",
                            "parameter_mmax": 100.0,
                            "parameter_modmode": 0,
                            "parameter_shortname": " ",
                            "parameter_type": 0,
                            "parameter_unitstyle": 5
                        }
                    },
                    "varname": "live.dial[1]"
                }
            },
            {
                "box": {
                    "id": "obj-19",
                    "maxclass": "live.numbox",
                    "numinlets": 1,
                    "numoutlets": 2,
                    "outlettype": [ "", "float" ],
                    "parameter_enable": 1,
                    "patching_rect": [ 320.66667622327805, 176.66667193174362, 36.0, 15.0 ],
                    "saved_attribute_attributes": {
                        "valueof": {
                            "parameter_longname": "live.numbox[33]",
                            "parameter_modmode": 0,
                            "parameter_shortname": "live.numbox[19]",
                            "parameter_type": 0,
                            "parameter_unitstyle": 0
                        }
                    },
                    "varname": "live.numbox"
                }
            },
            {
                "box": {
                    "fontname": "Arial",
                    "fontsize": 11.0,
                    "id": "obj-18",
                    "maxclass": "newobj",
                    "numinlets": 1,
                    "numoutlets": 1,
                    "outlettype": [ "" ],
                    "patching_rect": [ 320.66667622327805, 198.66667258739471, 105.0, 21.0 ],
                    "text": "prepend /neighbors"
                }
            },
            {
                "box": {
                    "fontname": "Arial",
                    "fontsize": 11.0,
                    "id": "obj-20",
                    "maxclass": "newobj",
                    "numinlets": 1,
                    "numoutlets": 2,
                    "outlettype": [ "", "" ],
                    "patching_rect": [ 222.00000661611557, 238.6666737794876, 147.0, 21.0 ],
                    "text": "spat5.osc.prepend /source/1"
                }
            },
            {
                "box": {
                    "id": "obj-17",
                    "maxclass": "newobj",
                    "numinlets": 1,
                    "numoutlets": 0,
                    "patching_rect": [ 475.3333474993706, 669.3333532810211, 121.0, 22.0 ],
                    "text": "mc.dac~ 33 34 35 36"
                }
            },
            {
                "box": {
                    "id": "obj-12",
                    "lastchannelcount": 4,
                    "maxclass": "mc.live.gain~",
                    "numinlets": 1,
                    "numoutlets": 4,
                    "outlettype": [ "multichannelsignal", "", "float", "list" ],
                    "parameter_enable": 1,
                    "patching_rect": [ 475.3333474993706, 516.6666820645332, 48.0, 136.0 ],
                    "saved_attribute_attributes": {
                        "valueof": {
                            "parameter_longname": "mc.live.gain~",
                            "parameter_mmax": 6.0,
                            "parameter_mmin": -70.0,
                            "parameter_modmode": 3,
                            "parameter_shortname": "mc.live.gain~",
                            "parameter_type": 0,
                            "parameter_unitstyle": 4
                        }
                    },
                    "varname": "mc.live.gain~"
                }
            },
            {
                "box": {
                    "id": "obj-10",
                    "maxclass": "message",
                    "numinlets": 2,
                    "numoutlets": 1,
                    "outlettype": [ "" ],
                    "patching_rect": [ 599.0, 196.0, 239.0, 22.0 ],
                    "presentation_linecount": 3,
                    "text": "/speakers/aed -45 0 1 45 0 1 -45 0 1 45 0 1"
                }
            },
            {
                "box": {
                    "id": "obj-9",
                    "maxclass": "message",
                    "numinlets": 2,
                    "numoutlets": 1,
                    "outlettype": [ "" ],
                    "patching_rect": [ 587.0, 157.0, 109.0, 22.0 ],
                    "text": "/speaker/number 4"
                }
            },
            {
                "box": {
                    "id": "obj-8",
                    "maxclass": "message",
                    "numinlets": 2,
                    "numoutlets": 1,
                    "outlettype": [ "" ],
                    "patching_rect": [ 475.3333474993706, 171.66667181253433, 102.0, 22.0 ],
                    "text": "/source/number 1"
                }
            },
            {
                "box": {
                    "id": "obj-6",
                    "maxclass": "message",
                    "numinlets": 2,
                    "numoutlets": 1,
                    "outlettype": [ "" ],
                    "patching_rect": [ 572.0000170469284, 328.6666764616966, 110.0, 22.0 ],
                    "presentation_linecount": 2,
                    "text": "/panning/type vbap"
                }
            },
            {
                "box": {
                    "id": "obj-5",
                    "maxclass": "message",
                    "numinlets": 2,
                    "numoutlets": 1,
                    "outlettype": [ "" ],
                    "patching_rect": [ 572.0, 295.0, 103.0, 22.0 ],
                    "text": "/panning/type knn"
                }
            },
            {
                "box": {
                    "id": "obj-4",
                    "maxclass": "message",
                    "numinlets": 2,
                    "numoutlets": 1,
                    "outlettype": [ "" ],
                    "patching_rect": [ 572.0, 259.0, 124.0, 22.0 ],
                    "text": "/panning/type angular"
                }
            }
        ],
        "lines": [
            {
                "patchline": {
                    "destination": [ "obj-45", 0 ],
                    "source": [ "obj-10", 0 ]
                }
            },
            {
                "patchline": {
                    "destination": [ "obj-17", 0 ],
                    "source": [ "obj-12", 0 ]
                }
            },
            {
                "patchline": {
                    "destination": [ "obj-20", 0 ],
                    "midpoints": [ 330.16667622327805, 228.6666737794876, 231.50000661611557, 228.6666737794876 ],
                    "source": [ "obj-18", 0 ]
                }
            },
            {
                "patchline": {
                    "destination": [ "obj-18", 0 ],
                    "source": [ "obj-19", 0 ]
                }
            },
            {
                "patchline": {
                    "destination": [ "obj-46", 0 ],
                    "source": [ "obj-20", 0 ]
                }
            },
            {
                "patchline": {
                    "destination": [ "obj-20", 0 ],
                    "source": [ "obj-21", 0 ]
                }
            },
            {
                "patchline": {
                    "destination": [ "obj-21", 0 ],
                    "source": [ "obj-22", 0 ]
                }
            },
            {
                "patchline": {
                    "destination": [ "obj-45", 0 ],
                    "source": [ "obj-24", 0 ]
                }
            },
            {
                "patchline": {
                    "destination": [ "obj-24", 0 ],
                    "source": [ "obj-26", 0 ]
                }
            },
            {
                "patchline": {
                    "destination": [ "obj-31", 1 ],
                    "source": [ "obj-28", 1 ]
                }
            },
            {
                "patchline": {
                    "destination": [ "obj-31", 0 ],
                    "source": [ "obj-28", 0 ]
                }
            },
            {
                "patchline": {
                    "destination": [ "obj-20", 0 ],
                    "midpoints": [ 160.16667115688324, 228.6666737794876, 231.50000661611557, 228.6666737794876 ],
                    "source": [ "obj-29", 0 ]
                }
            },
            {
                "patchline": {
                    "destination": [ "obj-29", 0 ],
                    "source": [ "obj-30", 0 ]
                }
            },
            {
                "patchline": {
                    "destination": [ "obj-35", 0 ],
                    "source": [ "obj-31", 0 ]
                }
            },
            {
                "patchline": {
                    "destination": [ "obj-12", 0 ],
                    "source": [ "obj-35", 0 ]
                }
            },
            {
                "patchline": {
                    "destination": [ "obj-38", 0 ],
                    "source": [ "obj-36", 0 ]
                }
            },
            {
                "patchline": {
                    "destination": [ "obj-37", 0 ],
                    "source": [ "obj-38", 0 ]
                }
            },
            {
                "patchline": {
                    "destination": [ "obj-41", 0 ],
                    "source": [ "obj-39", 0 ]
                }
            },
            {
                "patchline": {
                    "destination": [ "obj-46", 0 ],
                    "source": [ "obj-4", 0 ]
                }
            },
            {
                "patchline": {
                    "destination": [ "obj-40", 0 ],
                    "source": [ "obj-41", 0 ]
                }
            },
            {
                "patchline": {
                    "destination": [ "obj-44", 0 ],
                    "source": [ "obj-42", 0 ]
                }
            },
            {
                "patchline": {
                    "destination": [ "obj-43", 0 ],
                    "source": [ "obj-44", 0 ]
                }
            },
            {
                "patchline": {
                    "destination": [ "obj-55", 1 ],
                    "source": [ "obj-48", 1 ]
                }
            },
            {
                "patchline": {
                    "destination": [ "obj-55", 0 ],
                    "source": [ "obj-48", 0 ]
                }
            },
            {
                "patchline": {
                    "destination": [ "obj-46", 0 ],
                    "source": [ "obj-5", 0 ]
                }
            },
            {
                "patchline": {
                    "destination": [ "obj-56", 1 ],
                    "source": [ "obj-50", 1 ]
                }
            },
            {
                "patchline": {
                    "destination": [ "obj-56", 0 ],
                    "source": [ "obj-50", 0 ]
                }
            },
            {
                "patchline": {
                    "destination": [ "obj-57", 1 ],
                    "source": [ "obj-52", 1 ]
                }
            },
            {
                "patchline": {
                    "destination": [ "obj-57", 0 ],
                    "source": [ "obj-52", 0 ]
                }
            },
            {
                "patchline": {
                    "destination": [ "obj-36", 0 ],
                    "source": [ "obj-55", 0 ]
                }
            },
            {
                "patchline": {
                    "destination": [ "obj-39", 0 ],
                    "source": [ "obj-56", 0 ]
                }
            },
            {
                "patchline": {
                    "destination": [ "obj-42", 0 ],
                    "source": [ "obj-57", 0 ]
                }
            },
            {
                "patchline": {
                    "destination": [ "obj-46", 0 ],
                    "source": [ "obj-6", 0 ]
                }
            },
            {
                "patchline": {
                    "destination": [ "obj-45", 0 ],
                    "source": [ "obj-8", 0 ]
                }
            },
            {
                "patchline": {
                    "destination": [ "obj-45", 0 ],
                    "source": [ "obj-9", 0 ]
                }
            }
        ],
        "parameters": {
            "obj-12": [ "mc.live.gain~", "mc.live.gain~", 0 ],
            "obj-19": [ "live.numbox[33]", "live.numbox[19]", 0 ],
            "obj-22": [ "live.toggle[101]", "live.toggle[2]", 0 ],
            "obj-30": [ "live.dial[36]", " ", 0 ],
            "obj-38": [ "mc.live.gain~[1]", "mc.live.gain~", 0 ],
            "obj-41": [ "mc.live.gain~[2]", "mc.live.gain~", 0 ],
            "obj-44": [ "mc.live.gain~[3]", "mc.live.gain~", 0 ],
            "parameterbanks": {
                "0": {
                    "index": 0,
                    "name": "",
                    "parameters": [ "-", "-", "-", "-", "-", "-", "-", "-" ],
                    "buttons": [ "-", "-", "-", "-", "-", "-", "-", "-" ]
                }
            },
            "inherited_shortname": 1
        },
        "autosave": 0
    }
}