{
    "patcher": {
        "fileversion": 1,
        "appversion": {
            "major": 9,
            "minor": 1,
            "revision": 2,
            "architecture": "x64",
            "modernui": 1
        },
        "classnamespace": "box",
        "rect": [ 134.0, 178.0, 1314.0, 862.0 ],
        "boxes": [
            {
                "box": {
                    "id": "obj-10",
                    "maxclass": "message",
                    "numinlets": 2,
                    "numoutlets": 1,
                    "outlettype": [ "" ],
                    "patching_rect": [ 1374.0, 359.0, 50.0, 22.0 ],
                    "text": "0"
                }
            },
            {
                "box": {
                    "id": "obj-7",
                    "maxclass": "message",
                    "numinlets": 2,
                    "numoutlets": 1,
                    "outlettype": [ "" ],
                    "patching_rect": [ 874.0, 328.0, 50.0, 22.0 ],
                    "text": "0"
                }
            },
            {
                "box": {
                    "id": "obj-3",
                    "linecount": 3,
                    "maxclass": "message",
                    "numinlets": 2,
                    "numoutlets": 1,
                    "outlettype": [ "" ],
                    "patching_rect": [ 526.0, 86.0, 168.0, 49.0 ],
                    "text": "/spatial/listener \"roomtone_01.wav  -83.528 0.17\""
                }
            },
            {
                "box": {
                    "id": "obj-12",
                    "maxclass": "newobj",
                    "numinlets": 1,
                    "numoutlets": 2,
                    "outlettype": [ "", "FullPacket" ],
                    "patching_rect": [ 769.0, 143.0, 71.0, 22.0 ],
                    "text": "o.route /mic"
                }
            },
            {
                "box": {
                    "comment": "",
                    "id": "obj-34",
                    "index": 2,
                    "maxclass": "inlet",
                    "numinlets": 0,
                    "numoutlets": 1,
                    "outlettype": [ "" ],
                    "patching_rect": [ 769.0, 82.0, 30.0, 30.0 ]
                }
            },
            {
                "box": {
                    "color": [ 0.949019607843137, 0.0, 1.0, 1.0 ],
                    "id": "obj-33",
                    "maxclass": "newobj",
                    "numinlets": 2,
                    "numoutlets": 0,
                    "patcher": {
                        "fileversion": 1,
                        "appversion": {
                            "major": 9,
                            "minor": 1,
                            "revision": 2,
                            "architecture": "x64",
                            "modernui": 1
                        },
                        "classnamespace": "box",
                        "rect": [ 351.0, 280.0, 1248.0, 862.0 ],
                        "visible": 1,
                        "boxes": [
                            {
                                "box": {
                                    "id": "obj-8",
                                    "linecount": 5,
                                    "maxclass": "message",
                                    "numinlets": 2,
                                    "numoutlets": 1,
                                    "outlettype": [ "" ],
                                    "patching_rect": [ 119.0, 118.0, 50.0, 76.0 ],
                                    "text": "1 recorded_soprano_01.wav 1"
                                }
                            },
                            {
                                "box": {
                                    "id": "obj-5",
                                    "linecount": 3,
                                    "maxclass": "message",
                                    "numinlets": 2,
                                    "numoutlets": 1,
                                    "outlettype": [ "" ],
                                    "patching_rect": [ 925.0, 692.0, 320.0, 49.0 ],
                                    "text": "\"Macintosh HD:/Users/production/Documents/Max 9/Library/Online-main/audio/2D/recorded_soprano_01.wav\""
                                }
                            },
                            {
                                "box": {
                                    "id": "obj-3",
                                    "linecount": 4,
                                    "maxclass": "message",
                                    "numinlets": 2,
                                    "numoutlets": 1,
                                    "outlettype": [ "" ],
                                    "patching_rect": [ 918.0, 436.0, 50.0, 62.0 ],
                                    "text": "recorded_soprano_01.wav"
                                }
                            },
                            {
                                "box": {
                                    "hidden": 1,
                                    "id": "obj-15",
                                    "maxclass": "message",
                                    "numinlets": 2,
                                    "numoutlets": 1,
                                    "outlettype": [ "" ],
                                    "patching_rect": [ 303.0, 803.0, 614.0, 22.0 ],
                                    "text": "\"Macintosh HD:/Users/production/Documents/Max 9/Library/Online-main/audio/2D/recorded_soprano_01.wav\""
                                }
                            },
                            {
                                "box": {
                                    "id": "obj-9",
                                    "linecount": 5,
                                    "maxclass": "message",
                                    "numinlets": 2,
                                    "numoutlets": 1,
                                    "outlettype": [ "" ],
                                    "patching_rect": [ 199.0, 183.0, 50.0, 76.0 ],
                                    "text": "1 recorded_soprano_01.wav 1"
                                }
                            },
                            {
                                "box": {
                                    "id": "obj-7",
                                    "maxclass": "message",
                                    "numinlets": 2,
                                    "numoutlets": 1,
                                    "outlettype": [ "" ],
                                    "patching_rect": [ 607.7866833806038, 143.0, 50.0, 22.0 ]
                                }
                            },
                            {
                                "box": {
                                    "color": [ 0.176470588235294, 1.0, 0.0, 1.0 ],
                                    "id": "obj-20",
                                    "linecount": 3,
                                    "maxclass": "newobj",
                                    "numinlets": 1,
                                    "numoutlets": 0,
                                    "patching_rect": [ 285.61014556884766, 627.5423920154572, 105.0, 49.0 ],
                                    "text": "s #0_rec_duration"
                                }
                            },
                            {
                                "box": {
                                    "color": [ 0.949019607843137, 0.0, 1.0, 1.0 ],
                                    "id": "obj-10",
                                    "maxclass": "newobj",
                                    "numinlets": 1,
                                    "numoutlets": 0,
                                    "patcher": {
                                        "fileversion": 1,
                                        "appversion": {
                                            "major": 9,
                                            "minor": 1,
                                            "revision": 2,
                                            "architecture": "x64",
                                            "modernui": 1
                                        },
                                        "classnamespace": "box",
                                        "rect": [ 134.0, 178.0, 1852.0, 862.0 ],
                                        "visible": 1,
                                        "boxes": [
                                            {
                                                "box": {
                                                    "color": [ 0.176470588235294, 1.0, 0.0, 1.0 ],
                                                    "id": "obj-1",
                                                    "linecount": 3,
                                                    "maxclass": "newobj",
                                                    "numinlets": 0,
                                                    "numoutlets": 1,
                                                    "outlettype": [ "" ],
                                                    "patching_rect": [ 94.0, 716.0, 103.0, 49.0 ],
                                                    "text": "r #0_rec_duration"
                                                }
                                            },
                                            {
                                                "box": {
                                                    "id": "obj-49",
                                                    "maxclass": "newobj",
                                                    "numinlets": 2,
                                                    "numoutlets": 1,
                                                    "outlettype": [ "" ],
                                                    "patching_rect": [ 51.0, 485.0, 105.0, 22.0 ],
                                                    "text": "ears.overdrive~ 3."
                                                }
                                            },
                                            {
                                                "box": {
                                                    "id": "obj-45",
                                                    "maxclass": "newobj",
                                                    "numinlets": 2,
                                                    "numoutlets": 1,
                                                    "outlettype": [ "int" ],
                                                    "patching_rect": [ 137.0, 809.0, 39.0, 22.0 ],
                                                    "text": "+ 500"
                                                }
                                            },
                                            {
                                                "box": {
                                                    "id": "obj-34",
                                                    "maxclass": "newobj",
                                                    "numinlets": 1,
                                                    "numoutlets": 2,
                                                    "outlettype": [ "int", "int" ],
                                                    "patching_rect": [ 94.0, 781.0, 62.0, 22.0 ],
                                                    "text": "t 0 i"
                                                }
                                            },
                                            {
                                                "box": {
                                                    "id": "obj-31",
                                                    "maxclass": "newobj",
                                                    "numinlets": 3,
                                                    "numoutlets": 1,
                                                    "outlettype": [ "" ],
                                                    "patching_rect": [ 50.0, 839.0, 106.33902049064636, 22.0 ],
                                                    "text": "ears.crop~"
                                                }
                                            },
                                            {
                                                "box": {
                                                    "id": "obj-24",
                                                    "maxclass": "newobj",
                                                    "numinlets": 1,
                                                    "numoutlets": 1,
                                                    "outlettype": [ "" ],
                                                    "patching_rect": [ 51.0, 571.0, 186.0, 22.0 ],
                                                    "text": "ears.normalize~ -6. @ampunit db"
                                                }
                                            },
                                            {
                                                "box": {
                                                    "id": "obj-10",
                                                    "linecount": 2,
                                                    "maxclass": "message",
                                                    "numinlets": 2,
                                                    "numoutlets": 1,
                                                    "outlettype": [ "" ],
                                                    "patching_rect": [ 51.269214391708374, 138.0, 76.0, 35.0 ],
                                                    "text": "#0-recording"
                                                }
                                            },
                                            {
                                                "box": {
                                                    "id": "obj-32",
                                                    "maxclass": "newobj",
                                                    "numinlets": 2,
                                                    "numoutlets": 1,
                                                    "outlettype": [ "" ],
                                                    "patching_rect": [ 51.0, 527.0, 80.0, 22.0 ],
                                                    "text": "ears.clip~ 0.3"
                                                }
                                            },
                                            {
                                                "box": {
                                                    "id": "obj-21",
                                                    "maxclass": "newobj",
                                                    "numinlets": 3,
                                                    "numoutlets": 1,
                                                    "outlettype": [ "" ],
                                                    "patching_rect": [ 50.0, 1198.0, 126.0, 22.0 ],
                                                    "text": "ears.fade~ fade 10 10"
                                                }
                                            },
                                            {
                                                "box": {
                                                    "id": "obj-20",
                                                    "maxclass": "message",
                                                    "numinlets": 2,
                                                    "numoutlets": 1,
                                                    "outlettype": [ "" ],
                                                    "patching_rect": [ 243.0, 1121.0, 29.5, 22.0 ],
                                                    "text": "0"
                                                }
                                            },
                                            {
                                                "box": {
                                                    "id": "obj-87",
                                                    "maxclass": "newobj",
                                                    "numinlets": 5,
                                                    "numoutlets": 2,
                                                    "outlettype": [ "", "" ],
                                                    "patching_rect": [ 50.0, 1291.0, 608.0865775346756, 22.0 ],
                                                    "text": "ears.write~ @format int24"
                                                }
                                            },
                                            {
                                                "box": {
                                                    "id": "obj-83",
                                                    "maxclass": "newobj",
                                                    "numinlets": 3,
                                                    "numoutlets": 1,
                                                    "outlettype": [ "" ],
                                                    "patching_rect": [ 50.0, 1165.0, 405.0, 22.0 ],
                                                    "text": "ears.crop~"
                                                }
                                            },
                                            {
                                                "box": {
                                                    "id": "obj-82",
                                                    "maxclass": "message",
                                                    "numinlets": 2,
                                                    "numoutlets": 1,
                                                    "outlettype": [ "" ],
                                                    "patching_rect": [ 373.0, 1018.0, 75.0, 22.0 ],
                                                    "text": "set $1, bang"
                                                }
                                            },
                                            {
                                                "box": {
                                                    "id": "obj-80",
                                                    "maxclass": "newobj",
                                                    "numinlets": 1,
                                                    "numoutlets": 10,
                                                    "outlettype": [ "float", "list", "float", "float", "float", "float", "float", "", "int", "" ],
                                                    "patching_rect": [ 373.0, 1059.0, 113.5, 22.0 ],
                                                    "text": "info~"
                                                }
                                            },
                                            {
                                                "box": {
                                                    "id": "obj-77",
                                                    "maxclass": "newobj",
                                                    "numinlets": 1,
                                                    "numoutlets": 2,
                                                    "outlettype": [ "", "" ],
                                                    "patching_rect": [ 50.0, 970.0, 342.0, 22.0 ],
                                                    "text": "t l l"
                                                }
                                            },
                                            {
                                                "box": {
                                                    "id": "obj-76",
                                                    "maxclass": "message",
                                                    "numinlets": 2,
                                                    "numoutlets": 1,
                                                    "outlettype": [ "" ],
                                                    "patching_rect": [ 50.0, 1018.0, 116.0, 22.0 ],
                                                    "text": "$1 radioBackground"
                                                }
                                            },
                                            {
                                                "box": {
                                                    "id": "obj-70",
                                                    "maxclass": "newobj",
                                                    "numinlets": 1,
                                                    "numoutlets": 2,
                                                    "outlettype": [ "", "" ],
                                                    "patching_rect": [ 50.0, 255.0, 117.04980945587158, 22.0 ],
                                                    "text": "t l l"
                                                }
                                            },
                                            {
                                                "box": {
                                                    "id": "obj-69",
                                                    "maxclass": "newobj",
                                                    "numinlets": 3,
                                                    "numoutlets": 1,
                                                    "outlettype": [ "" ],
                                                    "patching_rect": [ 179.0, 298.0, 131.0, 22.0 ],
                                                    "text": "ears.soundtouch~ 1 10"
                                                }
                                            },
                                            {
                                                "box": {
                                                    "id": "obj-64",
                                                    "maxclass": "newobj",
                                                    "numinlets": 2,
                                                    "numoutlets": 1,
                                                    "outlettype": [ "" ],
                                                    "patching_rect": [ 51.0, 347.0, 116.10169768333435, 22.0 ],
                                                    "text": "ears.lace~"
                                                }
                                            },
                                            {
                                                "box": {
                                                    "id": "obj-63",
                                                    "maxclass": "newobj",
                                                    "numinlets": 3,
                                                    "numoutlets": 1,
                                                    "outlettype": [ "" ],
                                                    "patching_rect": [ 51.0, 619.0, 273.0, 22.0 ],
                                                    "text": "ears.freeverb~ @roomsize 0.35 @dry 1 @wet 0.1"
                                                }
                                            },
                                            {
                                                "box": {
                                                    "id": "obj-59",
                                                    "maxclass": "newobj",
                                                    "numinlets": 3,
                                                    "numoutlets": 1,
                                                    "outlettype": [ "" ],
                                                    "patching_rect": [ 50.0, 1059.0, 138.0, 22.0 ],
                                                    "text": "ears.mix~ @normalize 2"
                                                }
                                            },
                                            {
                                                "box": {
                                                    "id": "obj-56",
                                                    "maxclass": "message",
                                                    "numinlets": 2,
                                                    "numoutlets": 1,
                                                    "outlettype": [ "" ],
                                                    "patching_rect": [ 50.0, 883.0, 111.0, 22.0 ],
                                                    "text": "radioIn $1 radioOut"
                                                }
                                            },
                                            {
                                                "box": {
                                                    "id": "obj-54",
                                                    "maxclass": "newobj",
                                                    "numinlets": 1,
                                                    "numoutlets": 1,
                                                    "outlettype": [ "" ],
                                                    "patching_rect": [ 50.0, 929.0, 78.0, 22.0 ],
                                                    "text": "ears.join~ 50"
                                                }
                                            },
                                            {
                                                "box": {
                                                    "id": "obj-53",
                                                    "maxclass": "newobj",
                                                    "numinlets": 1,
                                                    "numoutlets": 2,
                                                    "outlettype": [ "bang", "" ],
                                                    "patching_rect": [ 51.269214391708374, 100.0, 607.6271331310272, 22.0 ],
                                                    "text": "t b l"
                                                }
                                            },
                                            {
                                                "box": {
                                                    "id": "obj-50",
                                                    "maxclass": "newobj",
                                                    "numinlets": 2,
                                                    "numoutlets": 1,
                                                    "outlettype": [ "" ],
                                                    "patching_rect": [ 51.0, 394.0, 396.0, 22.0 ],
                                                    "text": "ears.biquad~ lowpass 0.090814 0.181629 0.090814 -1.100546 0.463804"
                                                }
                                            },
                                            {
                                                "box": {
                                                    "id": "obj-48",
                                                    "maxclass": "newobj",
                                                    "numinlets": 2,
                                                    "numoutlets": 1,
                                                    "outlettype": [ "" ],
                                                    "patching_rect": [ 51.0, 437.0, 405.0, 22.0 ],
                                                    "text": "ears.biquad~ highpass 0.963906 -1.927812 0.963906 -1.925746 0.929878"
                                                }
                                            },
                                            {
                                                "box": {
                                                    "comment": "",
                                                    "id": "obj-3",
                                                    "index": 1,
                                                    "maxclass": "inlet",
                                                    "numinlets": 0,
                                                    "numoutlets": 1,
                                                    "outlettype": [ "" ],
                                                    "patching_rect": [ 51.26925550935357, 40.0, 30.0, 30.0 ]
                                                }
                                            }
                                        ],
                                        "lines": [
                                            {
                                                "patchline": {
                                                    "destination": [ "obj-34", 0 ],
                                                    "source": [ "obj-1", 0 ]
                                                }
                                            },
                                            {
                                                "patchline": {
                                                    "destination": [ "obj-70", 0 ],
                                                    "source": [ "obj-10", 0 ]
                                                }
                                            },
                                            {
                                                "patchline": {
                                                    "destination": [ "obj-83", 1 ],
                                                    "source": [ "obj-20", 0 ]
                                                }
                                            },
                                            {
                                                "patchline": {
                                                    "destination": [ "obj-87", 0 ],
                                                    "source": [ "obj-21", 0 ]
                                                }
                                            },
                                            {
                                                "patchline": {
                                                    "destination": [ "obj-63", 0 ],
                                                    "source": [ "obj-24", 0 ]
                                                }
                                            },
                                            {
                                                "patchline": {
                                                    "destination": [ "obj-53", 0 ],
                                                    "source": [ "obj-3", 0 ]
                                                }
                                            },
                                            {
                                                "patchline": {
                                                    "destination": [ "obj-56", 0 ],
                                                    "source": [ "obj-31", 0 ]
                                                }
                                            },
                                            {
                                                "patchline": {
                                                    "destination": [ "obj-24", 0 ],
                                                    "source": [ "obj-32", 0 ]
                                                }
                                            },
                                            {
                                                "patchline": {
                                                    "destination": [ "obj-31", 1 ],
                                                    "source": [ "obj-34", 0 ]
                                                }
                                            },
                                            {
                                                "patchline": {
                                                    "destination": [ "obj-45", 0 ],
                                                    "source": [ "obj-34", 1 ]
                                                }
                                            },
                                            {
                                                "patchline": {
                                                    "destination": [ "obj-31", 2 ],
                                                    "source": [ "obj-45", 0 ]
                                                }
                                            },
                                            {
                                                "patchline": {
                                                    "destination": [ "obj-49", 0 ],
                                                    "source": [ "obj-48", 0 ]
                                                }
                                            },
                                            {
                                                "patchline": {
                                                    "destination": [ "obj-32", 0 ],
                                                    "source": [ "obj-49", 0 ]
                                                }
                                            },
                                            {
                                                "patchline": {
                                                    "destination": [ "obj-48", 0 ],
                                                    "source": [ "obj-50", 0 ]
                                                }
                                            },
                                            {
                                                "patchline": {
                                                    "destination": [ "obj-10", 0 ],
                                                    "source": [ "obj-53", 0 ]
                                                }
                                            },
                                            {
                                                "patchline": {
                                                    "destination": [ "obj-87", 1 ],
                                                    "midpoints": [ 649.3963475227356, 1265.2892184257507, 206.7716443836689, 1265.2892184257507 ],
                                                    "source": [ "obj-53", 1 ]
                                                }
                                            },
                                            {
                                                "patchline": {
                                                    "destination": [ "obj-77", 0 ],
                                                    "source": [ "obj-54", 0 ]
                                                }
                                            },
                                            {
                                                "patchline": {
                                                    "destination": [ "obj-54", 0 ],
                                                    "source": [ "obj-56", 0 ]
                                                }
                                            },
                                            {
                                                "patchline": {
                                                    "destination": [ "obj-83", 0 ],
                                                    "source": [ "obj-59", 0 ]
                                                }
                                            },
                                            {
                                                "patchline": {
                                                    "destination": [ "obj-31", 0 ],
                                                    "source": [ "obj-63", 0 ]
                                                }
                                            },
                                            {
                                                "patchline": {
                                                    "destination": [ "obj-50", 0 ],
                                                    "source": [ "obj-64", 0 ]
                                                }
                                            },
                                            {
                                                "patchline": {
                                                    "destination": [ "obj-64", 1 ],
                                                    "source": [ "obj-70", 1 ]
                                                }
                                            },
                                            {
                                                "patchline": {
                                                    "destination": [ "obj-64", 0 ],
                                                    "source": [ "obj-70", 0 ]
                                                }
                                            },
                                            {
                                                "patchline": {
                                                    "destination": [ "obj-59", 0 ],
                                                    "source": [ "obj-76", 0 ]
                                                }
                                            },
                                            {
                                                "patchline": {
                                                    "destination": [ "obj-76", 0 ],
                                                    "source": [ "obj-77", 0 ]
                                                }
                                            },
                                            {
                                                "patchline": {
                                                    "destination": [ "obj-82", 0 ],
                                                    "source": [ "obj-77", 1 ]
                                                }
                                            },
                                            {
                                                "patchline": {
                                                    "destination": [ "obj-20", 0 ],
                                                    "midpoints": [ 445.5, 1106.0, 252.5, 1106.0 ],
                                                    "order": 1,
                                                    "source": [ "obj-80", 6 ]
                                                }
                                            },
                                            {
                                                "patchline": {
                                                    "destination": [ "obj-83", 2 ],
                                                    "order": 0,
                                                    "source": [ "obj-80", 6 ]
                                                }
                                            },
                                            {
                                                "patchline": {
                                                    "destination": [ "obj-80", 0 ],
                                                    "source": [ "obj-82", 0 ]
                                                }
                                            },
                                            {
                                                "patchline": {
                                                    "destination": [ "obj-21", 0 ],
                                                    "source": [ "obj-83", 0 ]
                                                }
                                            }
                                        ]
                                    },
                                    "patching_rect": [ 617.2183804512024, 732.4626541137695, 107.0, 22.0 ],
                                    "text": "p radio_composite"
                                }
                            },
                            {
                                "box": {
                                    "id": "obj-30",
                                    "maxclass": "newobj",
                                    "numinlets": 2,
                                    "numoutlets": 1,
                                    "outlettype": [ "int" ],
                                    "patching_rect": [ 285.61014556884766, 538.0, 29.5, 22.0 ],
                                    "text": "i"
                                }
                            },
                            {
                                "box": {
                                    "id": "obj-43",
                                    "maxclass": "newobj",
                                    "numinlets": 2,
                                    "numoutlets": 1,
                                    "outlettype": [ "" ],
                                    "patching_rect": [ 777.9661190509796, 541.1017119884491, 32.0, 22.0 ],
                                    "text": "gate"
                                }
                            },
                            {
                                "box": {
                                    "id": "obj-40",
                                    "maxclass": "newobj",
                                    "numinlets": 1,
                                    "numoutlets": 3,
                                    "outlettype": [ "bang", "bang", "int" ],
                                    "patching_rect": [ 456.77967071533203, 157.2033977508545, 107.62712121009827, 22.0 ],
                                    "text": "t b b 0"
                                }
                            },
                            {
                                "box": {
                                    "id": "obj-39",
                                    "maxclass": "newobj",
                                    "numinlets": 2,
                                    "numoutlets": 2,
                                    "outlettype": [ "", "" ],
                                    "patching_rect": [ 875.141464471817, 627.5423920154572, 38.0, 22.0 ],
                                    "text": "zl.reg"
                                }
                            },
                            {
                                "box": {
                                    "id": "obj-38",
                                    "maxclass": "newobj",
                                    "numinlets": 3,
                                    "numoutlets": 2,
                                    "outlettype": [ "", "" ],
                                    "patching_rect": [ 893.7855327129364, 558.8983225822449, 213.0, 22.0 ],
                                    "text": "combine folder 2D/ file @triggers 2"
                                }
                            },
                            {
                                "box": {
                                    "id": "obj-37",
                                    "maxclass": "message",
                                    "numinlets": 2,
                                    "numoutlets": 1,
                                    "outlettype": [ "" ],
                                    "patching_rect": [ 661.1396254897118, 319.0678083896637, 115.0, 22.0 ],
                                    "text": "clear, setsize 60000"
                                }
                            },
                            {
                                "box": {
                                    "id": "obj-33",
                                    "maxclass": "newobj",
                                    "numinlets": 2,
                                    "numoutlets": 2,
                                    "outlettype": [ "float", "" ],
                                    "patching_rect": [ 285.59322595596313, 497.03391432762146, 234.50000536441803, 22.0 ],
                                    "text": "timer"
                                }
                            },
                            {
                                "box": {
                                    "id": "obj-28",
                                    "maxclass": "newobj",
                                    "numinlets": 1,
                                    "numoutlets": 2,
                                    "outlettype": [ "int", "bang" ],
                                    "patching_rect": [ 274.8454909324646, 412.2881495952606, 29.5, 22.0 ],
                                    "text": "t i b"
                                }
                            },
                            {
                                "box": {
                                    "id": "obj-27",
                                    "maxclass": "newobj",
                                    "numinlets": 2,
                                    "numoutlets": 2,
                                    "outlettype": [ "", "" ],
                                    "patching_rect": [ 274.8454909324646, 356.35594487190247, 47.0, 22.0 ],
                                    "text": "zl.nth 1"
                                }
                            },
                            {
                                "box": {
                                    "id": "obj-26",
                                    "maxclass": "newobj",
                                    "numinlets": 2,
                                    "numoutlets": 4,
                                    "outlettype": [ "", "", "", "" ],
                                    "patching_rect": [ 617.2183804512024, 676.6949355602264, 276.9230840206146, 22.0 ],
                                    "text": "gate 4"
                                }
                            },
                            {
                                "box": {
                                    "id": "obj-25",
                                    "maxclass": "newobj",
                                    "numinlets": 1,
                                    "numoutlets": 3,
                                    "outlettype": [ "int", "", "int" ],
                                    "patching_rect": [ 389.61014556884766, 451.2712013721466, 247.0, 22.0 ],
                                    "text": "unpack i l i"
                                }
                            },
                            {
                                "box": {
                                    "id": "obj-23",
                                    "maxclass": "newobj",
                                    "numinlets": 2,
                                    "numoutlets": 1,
                                    "outlettype": [ "" ],
                                    "patching_rect": [ 389.83051657676697, 407.20340371131897, 32.77968587477994, 22.0 ],
                                    "text": "gate"
                                }
                            },
                            {
                                "box": {
                                    "id": "obj-22",
                                    "maxclass": "newobj",
                                    "numinlets": 2,
                                    "numoutlets": 1,
                                    "outlettype": [ "int" ],
                                    "patching_rect": [ 390.09973096847534, 356.35594487190247, 29.5, 22.0 ],
                                    "text": "> 1"
                                }
                            },
                            {
                                "box": {
                                    "id": "obj-19",
                                    "maxclass": "newobj",
                                    "numinlets": 2,
                                    "numoutlets": 2,
                                    "outlettype": [ "", "" ],
                                    "patching_rect": [ 390.09973096847534, 319.0678083896637, 37.0, 22.0 ],
                                    "text": "zl.len"
                                }
                            },
                            {
                                "box": {
                                    "id": "obj-14",
                                    "maxclass": "newobj",
                                    "numinlets": 1,
                                    "numoutlets": 4,
                                    "outlettype": [ "", "", "", "bang" ],
                                    "patching_rect": [ 274.8454909324646, 273.30509543418884, 405.29413455724716, 22.0 ],
                                    "text": "t l l l b"
                                }
                            },
                            {
                                "box": {
                                    "id": "obj-2",
                                    "maxclass": "newobj",
                                    "numinlets": 3,
                                    "numoutlets": 3,
                                    "outlettype": [ "", "", "" ],
                                    "patching_rect": [ 274.8454909324646, 100.0, 382.9411924481392, 22.0 ],
                                    "text": "routepass 1 0"
                                }
                            },
                            {
                                "box": {
                                    "color": [ 0.176470588235294, 1.0, 0.0, 1.0 ],
                                    "id": "obj-88",
                                    "maxclass": "newobj",
                                    "numinlets": 0,
                                    "numoutlets": 1,
                                    "outlettype": [ "" ],
                                    "patching_rect": [ 893.7855327129364, 521.6101861000061, 62.0, 22.0 ],
                                    "text": "r sf_folder"
                                }
                            },
                            {
                                "box": {
                                    "id": "obj-12",
                                    "linecount": 2,
                                    "maxclass": "newobj",
                                    "numinlets": 3,
                                    "numoutlets": 1,
                                    "outlettype": [ "signal" ],
                                    "patching_rect": [ 50.0, 676.6949355602264, 120.0, 35.0 ],
                                    "text": "record~ #0-recording"
                                }
                            },
                            {
                                "box": {
                                    "color": [ 1.0, 0.0, 0.0, 1.0 ],
                                    "id": "obj-11",
                                    "linecount": 2,
                                    "maxclass": "newobj",
                                    "numinlets": 1,
                                    "numoutlets": 2,
                                    "outlettype": [ "float", "bang" ],
                                    "patching_rect": [ 661.28617811203, 356.35594487190247, 199.41177302598953, 35.0 ],
                                    "text": "buffer~ #0-recording @size 60000 @format 24"
                                }
                            },
                            {
                                "box": {
                                    "comment": "",
                                    "id": "obj-31",
                                    "index": 1,
                                    "maxclass": "inlet",
                                    "numinlets": 0,
                                    "numoutlets": 1,
                                    "outlettype": [ "signal" ],
                                    "patching_rect": [ 49.99997756884761, 40.0, 30.0, 30.0 ]
                                }
                            },
                            {
                                "box": {
                                    "comment": "",
                                    "id": "obj-32",
                                    "index": 2,
                                    "maxclass": "inlet",
                                    "numinlets": 0,
                                    "numoutlets": 1,
                                    "outlettype": [ "" ],
                                    "patching_rect": [ 274.8454975688476, 40.0, 30.0, 30.0 ]
                                }
                            }
                        ],
                        "lines": [
                            {
                                "patchline": {
                                    "destination": [ "obj-19", 0 ],
                                    "midpoints": [ 541.8749139706294, 307.6630018353462, 399.59973096847534, 307.6630018353462 ],
                                    "source": [ "obj-14", 2 ]
                                }
                            },
                            {
                                "patchline": {
                                    "destination": [ "obj-23", 1 ],
                                    "source": [ "obj-14", 1 ]
                                }
                            },
                            {
                                "patchline": {
                                    "destination": [ "obj-27", 0 ],
                                    "source": [ "obj-14", 0 ]
                                }
                            },
                            {
                                "patchline": {
                                    "destination": [ "obj-37", 0 ],
                                    "source": [ "obj-14", 3 ]
                                }
                            },
                            {
                                "patchline": {
                                    "destination": [ "obj-22", 0 ],
                                    "source": [ "obj-19", 0 ]
                                }
                            },
                            {
                                "patchline": {
                                    "destination": [ "obj-14", 0 ],
                                    "order": 0,
                                    "source": [ "obj-2", 0 ]
                                }
                            },
                            {
                                "patchline": {
                                    "destination": [ "obj-40", 0 ],
                                    "source": [ "obj-2", 1 ]
                                }
                            },
                            {
                                "patchline": {
                                    "destination": [ "obj-7", 1 ],
                                    "source": [ "obj-2", 2 ]
                                }
                            },
                            {
                                "patchline": {
                                    "destination": [ "obj-8", 1 ],
                                    "order": 2,
                                    "source": [ "obj-2", 0 ]
                                }
                            },
                            {
                                "patchline": {
                                    "destination": [ "obj-9", 1 ],
                                    "order": 1,
                                    "source": [ "obj-2", 0 ]
                                }
                            },
                            {
                                "patchline": {
                                    "destination": [ "obj-23", 0 ],
                                    "order": 1,
                                    "source": [ "obj-22", 0 ]
                                }
                            },
                            {
                                "patchline": {
                                    "destination": [ "obj-43", 0 ],
                                    "midpoints": [ 399.59973096847534, 401.2712001800537, 787.4661190509796, 401.2712001800537 ],
                                    "order": 0,
                                    "source": [ "obj-22", 0 ]
                                }
                            },
                            {
                                "patchline": {
                                    "destination": [ "obj-25", 0 ],
                                    "source": [ "obj-23", 0 ]
                                }
                            },
                            {
                                "patchline": {
                                    "destination": [ "obj-26", 0 ],
                                    "midpoints": [ 627.1101455688477, 488.6379402279854, 626.7183804512024, 488.6379402279854 ],
                                    "source": [ "obj-25", 2 ]
                                }
                            },
                            {
                                "patchline": {
                                    "destination": [ "obj-3", 1 ],
                                    "order": 1,
                                    "source": [ "obj-25", 1 ]
                                }
                            },
                            {
                                "patchline": {
                                    "destination": [ "obj-38", 2 ],
                                    "midpoints": [ 513.1101455688477, 490.956162750721, 1097.2855327129364, 490.956162750721 ],
                                    "order": 0,
                                    "source": [ "obj-25", 1 ]
                                }
                            },
                            {
                                "patchline": {
                                    "destination": [ "obj-10", 0 ],
                                    "order": 1,
                                    "source": [ "obj-26", 0 ]
                                }
                            },
                            {
                                "patchline": {
                                    "destination": [ "obj-15", 1 ],
                                    "order": 0,
                                    "source": [ "obj-26", 0 ]
                                }
                            },
                            {
                                "patchline": {
                                    "destination": [ "obj-28", 0 ],
                                    "source": [ "obj-27", 0 ]
                                }
                            },
                            {
                                "patchline": {
                                    "color": [ 0.176470588235294, 1.0, 0.0, 1.0 ],
                                    "destination": [ "obj-12", 0 ],
                                    "midpoints": [ 284.3454909324646, 474.30900126695633, 59.5, 474.30900126695633 ],
                                    "source": [ "obj-28", 0 ]
                                }
                            },
                            {
                                "patchline": {
                                    "destination": [ "obj-33", 0 ],
                                    "source": [ "obj-28", 1 ]
                                }
                            },
                            {
                                "patchline": {
                                    "destination": [ "obj-20", 0 ],
                                    "source": [ "obj-30", 0 ]
                                }
                            },
                            {
                                "patchline": {
                                    "destination": [ "obj-12", 0 ],
                                    "source": [ "obj-31", 0 ]
                                }
                            },
                            {
                                "patchline": {
                                    "destination": [ "obj-2", 0 ],
                                    "source": [ "obj-32", 0 ]
                                }
                            },
                            {
                                "patchline": {
                                    "destination": [ "obj-30", 0 ],
                                    "source": [ "obj-33", 0 ]
                                }
                            },
                            {
                                "patchline": {
                                    "destination": [ "obj-11", 0 ],
                                    "source": [ "obj-37", 0 ]
                                }
                            },
                            {
                                "patchline": {
                                    "destination": [ "obj-39", 1 ],
                                    "source": [ "obj-38", 0 ]
                                }
                            },
                            {
                                "patchline": {
                                    "destination": [ "obj-26", 1 ],
                                    "order": 1,
                                    "source": [ "obj-39", 0 ]
                                }
                            },
                            {
                                "patchline": {
                                    "destination": [ "obj-5", 1 ],
                                    "order": 0,
                                    "source": [ "obj-39", 0 ]
                                }
                            },
                            {
                                "patchline": {
                                    "color": [ 1.0, 0.0, 0.0, 1.0 ],
                                    "destination": [ "obj-12", 0 ],
                                    "midpoints": [ 554.9067919254303, 580.0847637653351, 59.5, 580.0847637653351 ],
                                    "source": [ "obj-40", 2 ]
                                }
                            },
                            {
                                "patchline": {
                                    "destination": [ "obj-33", 1 ],
                                    "source": [ "obj-40", 1 ]
                                }
                            },
                            {
                                "patchline": {
                                    "destination": [ "obj-43", 1 ],
                                    "midpoints": [ 466.27967071533203, 211.44068717956543, 800.4661190509796, 211.44068717956543 ],
                                    "source": [ "obj-40", 0 ]
                                }
                            },
                            {
                                "patchline": {
                                    "destination": [ "obj-39", 0 ],
                                    "midpoints": [ 787.4661190509796, 614.0, 884.641464471817, 614.0 ],
                                    "source": [ "obj-43", 0 ]
                                }
                            },
                            {
                                "patchline": {
                                    "destination": [ "obj-38", 0 ],
                                    "source": [ "obj-88", 0 ]
                                }
                            }
                        ]
                    },
                    "patching_rect": [ 999.0, 703.0, 248.0, 22.0 ],
                    "text": "p recording"
                }
            },
            {
                "box": {
                    "id": "obj-24",
                    "maxclass": "comment",
                    "numinlets": 1,
                    "numoutlets": 0,
                    "patching_rect": [ 1686.5671038627625, 1241.791000366211, 150.0, 20.0 ]
                }
            },
            {
                "box": {
                    "id": "obj-18",
                    "maxclass": "newobj",
                    "numinlets": 1,
                    "numoutlets": 1,
                    "outlettype": [ "" ],
                    "patching_rect": [ 769.0, 275.0, 39.0, 22.0 ],
                    "text": "dbtoa"
                }
            },
            {
                "box": {
                    "id": "obj-16",
                    "maxclass": "newobj",
                    "numinlets": 1,
                    "numoutlets": 5,
                    "outlettype": [ "", "", "", "", "FullPacket" ],
                    "patching_rect": [ 769.0, 201.0, 937.0, 22.0 ],
                    "text": "o.route /pregain /postgain /record /fx"
                }
            },
            {
                "box": {
                    "id": "obj-15",
                    "maxclass": "newobj",
                    "numinlets": 2,
                    "numoutlets": 1,
                    "outlettype": [ "signal" ],
                    "patching_rect": [ 182.0, 397.0, 34.0, 22.0 ],
                    "text": "*~ 1."
                }
            },
            {
                "box": {
                    "id": "obj-8",
                    "maxclass": "comment",
                    "numinlets": 1,
                    "numoutlets": 0,
                    "patching_rect": [ 380.0, 178.0, 54.0, 20.0 ],
                    "text": "fq 110hz"
                }
            },
            {
                "box": {
                    "id": "obj-4",
                    "linecount": 2,
                    "maxclass": "newobj",
                    "numinlets": 6,
                    "numoutlets": 1,
                    "outlettype": [ "signal" ],
                    "patching_rect": [ 182.0, 202.0, 252.0, 35.0 ],
                    "text": "biquad~ 0.989769 -1.979538 0.989769 -1.979435 0.97964"
                }
            },
            {
                "box": {
                    "comment": "",
                    "id": "obj-1",
                    "index": 1,
                    "maxclass": "inlet",
                    "numinlets": 0,
                    "numoutlets": 1,
                    "outlettype": [ "signal" ],
                    "patching_rect": [ 182.0, 82.0, 30.0, 30.0 ]
                }
            }
        ],
        "lines": [
            {
                "patchline": {
                    "destination": [ "obj-4", 0 ],
                    "source": [ "obj-1", 0 ]
                }
            },
            {
                "patchline": {
                    "destination": [ "obj-16", 0 ],
                    "source": [ "obj-12", 0 ]
                }
            },
            {
                "patchline": {
                    "destination": [ "obj-33", 0 ],
                    "midpoints": [ 191.5, 627.9186896085739, 1008.5, 627.9186896085739 ],
                    "source": [ "obj-15", 0 ]
                }
            },
            {
                "patchline": {
                    "destination": [ "obj-10", 1 ],
                    "order": 0,
                    "source": [ "obj-16", 2 ]
                }
            },
            {
                "patchline": {
                    "destination": [ "obj-18", 0 ],
                    "source": [ "obj-16", 0 ]
                }
            },
            {
                "patchline": {
                    "destination": [ "obj-33", 1 ],
                    "order": 1,
                    "source": [ "obj-16", 2 ]
                }
            },
            {
                "patchline": {
                    "destination": [ "obj-7", 1 ],
                    "order": 2,
                    "source": [ "obj-16", 2 ]
                }
            },
            {
                "patchline": {
                    "destination": [ "obj-15", 1 ],
                    "midpoints": [ 778.5, 352.0, 206.5, 352.0 ],
                    "source": [ "obj-18", 0 ]
                }
            },
            {
                "patchline": {
                    "destination": [ "obj-12", 0 ],
                    "order": 0,
                    "source": [ "obj-34", 0 ]
                }
            },
            {
                "patchline": {
                    "destination": [ "obj-3", 1 ],
                    "order": 1,
                    "source": [ "obj-34", 0 ]
                }
            },
            {
                "patchline": {
                    "destination": [ "obj-15", 0 ],
                    "source": [ "obj-4", 0 ]
                }
            }
        ]
    }
}