{
    "patcher": {
        "fileversion": 1,
        "appversion": {
            "major": 9,
            "minor": 1,
            "revision": 2,
            "architecture": "x64",
            "modernui": 1
        },
        "classnamespace": "box",
        "rect": [ 134.0, 134.0, 1852.0, 921.0 ],
        "boxes": [
            {
                "box": {
                    "id": "obj-5",
                    "maxclass": "newobj",
                    "numinlets": 1,
                    "numoutlets": 2,
                    "outlettype": [ "bang", "" ],
                    "patching_rect": [ 1030.0, 665.0, 29.5, 22.0 ],
                    "text": "t b l"
                }
            },
            {
                "box": {
                    "id": "obj-51",
                    "maxclass": "message",
                    "numinlets": 2,
                    "numoutlets": 1,
                    "outlettype": [ "" ],
                    "patching_rect": [ 1068.0, 355.0, 41.0, 22.0 ],
                    "text": "set $1"
                }
            },
            {
                "box": {
                    "id": "obj-49",
                    "maxclass": "newobj",
                    "numinlets": 1,
                    "numoutlets": 1,
                    "outlettype": [ "" ],
                    "patching_rect": [ 1030.0, 411.0, 53.0, 22.0 ],
                    "text": "prepend"
                }
            },
            {
                "box": {
                    "id": "obj-46",
                    "maxclass": "newobj",
                    "numinlets": 1,
                    "numoutlets": 2,
                    "outlettype": [ "bang", "int" ],
                    "patching_rect": [ 1030.0, 269.0, 57.0, 22.0 ],
                    "text": "t b i"
                }
            },
            {
                "box": {
                    "id": "obj-40",
                    "maxclass": "message",
                    "numinlets": 2,
                    "numoutlets": 1,
                    "outlettype": [ "" ],
                    "patching_rect": [ 1030.0, 318.0, 29.5, 22.0 ],
                    "text": "0"
                }
            },
            {
                "box": {
                    "color": [ 0.176470588235294, 1.0, 0.0, 1.0 ],
                    "id": "obj-37",
                    "maxclass": "newobj",
                    "numinlets": 0,
                    "numoutlets": 1,
                    "outlettype": [ "" ],
                    "patching_rect": [ 1030.0, 217.0, 119.0, 22.0 ],
                    "text": "r #0_voice_index"
                }
            },
            {
                "box": {
                    "id": "obj-44",
                    "maxclass": "newobj",
                    "numinlets": 1,
                    "numoutlets": 1,
                    "outlettype": [ "" ],
                    "patching_rect": [ 1030.0, 604.0, 72.0, 22.0 ],
                    "text": "prepend set"
                }
            },
            {
                "box": {
                    "id": "obj-4",
                    "maxclass": "comment",
                    "numinlets": 1,
                    "numoutlets": 0,
                    "patching_rect": [ 1006.0, 747.0, 150.0, 20.0 ]
                }
            },
            {
                "box": {
                    "id": "obj-43",
                    "maxclass": "newobj",
                    "numinlets": 1,
                    "numoutlets": 0,
                    "patching_rect": [ 1030.0, 820.0, 35.0, 22.0 ],
                    "text": "out 1"
                }
            },
            {
                "box": {
                    "id": "obj-3",
                    "maxclass": "newobj",
                    "numinlets": 1,
                    "numoutlets": 1,
                    "outlettype": [ "bang" ],
                    "patching_rect": [ 408.0, 25.0, 58.0, 22.0 ],
                    "text": "loadbang"
                }
            },
            {
                "box": {
                    "id": "obj-23",
                    "maxclass": "toggle",
                    "numinlets": 1,
                    "numoutlets": 1,
                    "outlettype": [ "int" ],
                    "parameter_enable": 0,
                    "patching_rect": [ 494.5, 387.0, 24.0, 24.0 ]
                }
            },
            {
                "box": {
                    "id": "obj-27",
                    "maxclass": "newobj",
                    "numinlets": 1,
                    "numoutlets": 1,
                    "outlettype": [ "" ],
                    "patching_rect": [ 442.0, 174.0, 70.0, 22.0 ],
                    "text": "loadmess 1"
                }
            },
            {
                "box": {
                    "id": "obj-22",
                    "maxclass": "newobj",
                    "numinlets": 2,
                    "numoutlets": 1,
                    "outlettype": [ "int" ],
                    "patching_rect": [ 522.0, 174.0, 29.5, 22.0 ],
                    "text": "!- 1"
                }
            },
            {
                "box": {
                    "id": "obj-21",
                    "maxclass": "message",
                    "numinlets": 2,
                    "numoutlets": 1,
                    "outlettype": [ "" ],
                    "patching_rect": [ 522.0, 213.0, 52.0, 22.0 ],
                    "text": "mute $1"
                }
            },
            {
                "box": {
                    "color": [ 0.176470588235294, 1.0, 0.0, 1.0 ],
                    "id": "obj-19",
                    "maxclass": "newobj",
                    "numinlets": 0,
                    "numoutlets": 1,
                    "outlettype": [ "" ],
                    "patching_rect": [ 522.0, 143.0, 117.0, 22.0 ],
                    "text": "r #0_voice_state"
                }
            },
            {
                "box": {
                    "id": "obj-16",
                    "maxclass": "newobj",
                    "numinlets": 1,
                    "numoutlets": 3,
                    "outlettype": [ "int", "int", "int" ],
                    "patching_rect": [ 408.0, 266.0, 192.0, 22.0 ],
                    "text": "thispoly~"
                }
            },
            {
                "box": {
                    "id": "obj-12",
                    "maxclass": "newobj",
                    "numinlets": 1,
                    "numoutlets": 0,
                    "patching_rect": [ 63.0, 286.0, 119.0, 22.0 ],
                    "saved_object_attributes": {
                        "attr_comment": "",
                        "c": ""
                    },
                    "text": "mc.out~ 1 @chans 4"
                }
            },
            {
                "box": {
                    "id": "obj-8",
                    "maxclass": "newobj",
                    "numinlets": 1,
                    "numoutlets": 1,
                    "outlettype": [ "" ],
                    "patching_rect": [ 63.0, 101.0, 28.0, 22.0 ],
                    "text": "in 1"
                }
            },
            {
                "box": {
                    "color": [ 0.176470588235294, 1.0, 0.0, 1.0 ],
                    "id": "obj-14",
                    "maxclass": "newobj",
                    "numinlets": 1,
                    "numoutlets": 0,
                    "patching_rect": [ 408.0, 317.0, 121.0, 22.0 ],
                    "text": "s #0_voice_index"
                }
            },
            {
                "box": {
                    "color": [ 0.949019607843137, 0.0, 1.0, 1.0 ],
                    "id": "obj-114",
                    "maxclass": "newobj",
                    "numinlets": 1,
                    "numoutlets": 2,
                    "outlettype": [ "multichannelsignal", "bang" ],
                    "patcher": {
                        "fileversion": 1,
                        "appversion": {
                            "major": 9,
                            "minor": 1,
                            "revision": 2,
                            "architecture": "x64",
                            "modernui": 1
                        },
                        "classnamespace": "box",
                        "rect": [ 134.0, 159.0, 1387.0, 921.0 ],
                        "boxes": [
                            {
                                "box": {
                                    "id": "obj-28",
                                    "maxclass": "newobj",
                                    "numinlets": 1,
                                    "numoutlets": 0,
                                    "patching_rect": [ 290.0, 840.0, 78.0, 22.0 ],
                                    "text": "print stopped"
                                }
                            },
                            {
                                "box": {
                                    "id": "obj-30",
                                    "maxclass": "newobj",
                                    "numinlets": 4,
                                    "numoutlets": 1,
                                    "outlettype": [ "multichannelsignal" ],
                                    "patching_rect": [ 154.0, 939.0, 70.0, 22.0 ],
                                    "text": "mc.pack~ 4"
                                }
                            },
                            {
                                "box": {
                                    "id": "obj-31",
                                    "maxclass": "message",
                                    "numinlets": 2,
                                    "numoutlets": 1,
                                    "outlettype": [ "" ],
                                    "patching_rect": [ 926.0, 463.0, 50.0, 22.0 ]
                                }
                            },
                            {
                                "box": {
                                    "id": "obj-29",
                                    "maxclass": "message",
                                    "numinlets": 2,
                                    "numoutlets": 1,
                                    "outlettype": [ "" ],
                                    "patching_rect": [ 300.0, 249.0, 29.5, 22.0 ],
                                    "text": "$5"
                                }
                            },
                            {
                                "box": {
                                    "id": "obj-4",
                                    "maxclass": "newobj",
                                    "numinlets": 2,
                                    "numoutlets": 2,
                                    "outlettype": [ "int", "int" ],
                                    "patching_rect": [ 300.0, 282.0, 77.0, 22.0 ],
                                    "text": "maximum 10"
                                }
                            },
                            {
                                "box": {
                                    "id": "obj-27",
                                    "maxclass": "newobj",
                                    "numinlets": 2,
                                    "numoutlets": 1,
                                    "outlettype": [ "" ],
                                    "patching_rect": [ 420.0, 526.0, 54.0, 22.0 ],
                                    "text": "pipe"
                                }
                            },
                            {
                                "box": {
                                    "id": "obj-26",
                                    "maxclass": "comment",
                                    "numinlets": 1,
                                    "numoutlets": 0,
                                    "patching_rect": [ 685.0, 313.0, 453.0, 20.0 ],
                                    "text": "{soundfile} {state} {loop} {attenuation} {fade} {gain} {supersound} {start_delay}"
                                }
                            },
                            {
                                "box": {
                                    "id": "obj-25",
                                    "maxclass": "newobj",
                                    "numinlets": 1,
                                    "numoutlets": 2,
                                    "outlettype": [ "bang", "" ],
                                    "patching_rect": [ 1343.0, 865.0, 76.0, 22.0 ],
                                    "text": "t b l"
                                }
                            },
                            {
                                "box": {
                                    "id": "obj-24",
                                    "maxclass": "newobj",
                                    "numinlets": 1,
                                    "numoutlets": 1,
                                    "outlettype": [ "" ],
                                    "patching_rect": [ 1343.0, 808.0, 72.0, 22.0 ],
                                    "text": "prepend set"
                                }
                            },
                            {
                                "box": {
                                    "comment": "",
                                    "id": "obj-21",
                                    "index": 2,
                                    "maxclass": "outlet",
                                    "numinlets": 1,
                                    "numoutlets": 0,
                                    "patching_rect": [ 1343.0, 955.0, 30.0, 30.0 ]
                                }
                            },
                            {
                                "box": {
                                    "id": "obj-22",
                                    "linecount": 5,
                                    "maxclass": "comment",
                                    "numinlets": 1,
                                    "numoutlets": 0,
                                    "patching_rect": [ 529.0, 748.5, 150.0, 74.0 ],
                                    "text": "if the file is looping, avoid sending twice OFF when the loop is off. Is looping, the OFF mechanism should come from Unreal"
                                }
                            },
                            {
                                "box": {
                                    "id": "obj-18",
                                    "maxclass": "newobj",
                                    "numinlets": 2,
                                    "numoutlets": 1,
                                    "outlettype": [ "int" ],
                                    "patching_rect": [ 487.66666666666663, 775.0, 29.5, 22.0 ],
                                    "text": "!- 1"
                                }
                            },
                            {
                                "box": {
                                    "id": "obj-16",
                                    "maxclass": "newobj",
                                    "numinlets": 2,
                                    "numoutlets": 1,
                                    "outlettype": [ "" ],
                                    "patching_rect": [ 220.5, 840.0, 32.0, 22.0 ],
                                    "text": "gate"
                                }
                            },
                            {
                                "box": {
                                    "color": [ 0.176470588235294, 1.0, 0.0, 1.0 ],
                                    "id": "obj-12",
                                    "maxclass": "newobj",
                                    "numinlets": 0,
                                    "numoutlets": 1,
                                    "outlettype": [ "" ],
                                    "patching_rect": [ 191.0, 426.0, 127.0, 22.0 ],
                                    "text": "r #0_done_playing"
                                }
                            },
                            {
                                "box": {
                                    "color": [ 0.176470588235294, 1.0, 0.0, 1.0 ],
                                    "id": "obj-10",
                                    "maxclass": "newobj",
                                    "numinlets": 1,
                                    "numoutlets": 0,
                                    "patching_rect": [ 220.5, 881.0, 129.0, 22.0 ],
                                    "text": "s #0_done_playing"
                                }
                            },
                            {
                                "box": {
                                    "id": "obj-9",
                                    "maxclass": "newobj",
                                    "numinlets": 1,
                                    "numoutlets": 1,
                                    "outlettype": [ "" ],
                                    "patching_rect": [ 589.1666666666666, 1025.0, 39.0, 22.0 ],
                                    "text": "dbtoa"
                                }
                            },
                            {
                                "box": {
                                    "id": "obj-6",
                                    "maxclass": "newobj",
                                    "numinlets": 2,
                                    "numoutlets": 1,
                                    "outlettype": [ "multichannelsignal" ],
                                    "patching_rect": [ 154.0, 1155.0, 454.0, 22.0 ],
                                    "text": "mc.*~ 0."
                                }
                            },
                            {
                                "box": {
                                    "id": "obj-5",
                                    "linecount": 3,
                                    "maxclass": "comment",
                                    "numinlets": 1,
                                    "numoutlets": 0,
                                    "patching_rect": [ 475.0, 230.0, 165.0, 47.0 ],
                                    "text": "2D SOUNDS DON'T HAVE ATTENUATION AND CAN'T BE SUPERSOUND"
                                }
                            },
                            {
                                "box": {
                                    "id": "obj-23",
                                    "maxclass": "newobj",
                                    "numinlets": 1,
                                    "numoutlets": 2,
                                    "outlettype": [ "int", "int" ],
                                    "patching_rect": [ 143.0, 469.0, 29.5, 22.0 ],
                                    "text": "t i i"
                                }
                            },
                            {
                                "box": {
                                    "color": [ 0.176470588235294, 1.0, 0.0, 1.0 ],
                                    "id": "obj-20",
                                    "maxclass": "newobj",
                                    "numinlets": 1,
                                    "numoutlets": 0,
                                    "patching_rect": [ 143.0, 519.0, 119.0, 22.0 ],
                                    "text": "s #0_voice_state"
                                }
                            },
                            {
                                "box": {
                                    "id": "obj-15",
                                    "maxclass": "newobj",
                                    "numinlets": 2,
                                    "numoutlets": 2,
                                    "outlettype": [ "", "" ],
                                    "patching_rect": [ 737.0, 196.0, 71.0, 22.0 ],
                                    "text": "routepass 1"
                                }
                            },
                            {
                                "box": {
                                    "color": [ 0.176470588235294, 1.0, 0.0, 1.0 ],
                                    "id": "obj-3",
                                    "maxclass": "newobj",
                                    "numinlets": 1,
                                    "numoutlets": 0,
                                    "patching_rect": [ 737.0, 230.0, 119.0, 22.0 ],
                                    "text": "s #0_voice_state"
                                }
                            },
                            {
                                "box": {
                                    "id": "obj-14",
                                    "maxclass": "message",
                                    "numinlets": 2,
                                    "numoutlets": 1,
                                    "outlettype": [ "" ],
                                    "patching_rect": [ 1086.0, 562.0, 41.0, 22.0 ],
                                    "text": "set $1"
                                }
                            },
                            {
                                "box": {
                                    "color": [ 0.176470588235294, 1.0, 0.0, 1.0 ],
                                    "id": "obj-2",
                                    "maxclass": "newobj",
                                    "numinlets": 0,
                                    "numoutlets": 1,
                                    "outlettype": [ "" ],
                                    "patching_rect": [ 1086.0, 526.0, 119.0, 22.0 ],
                                    "text": "r #0_voice_index"
                                }
                            },
                            {
                                "box": {
                                    "id": "obj-51",
                                    "maxclass": "comment",
                                    "numinlets": 1,
                                    "numoutlets": 0,
                                    "patching_rect": [ 191.0, 336.0, 104.0, 20.0 ],
                                    "text": "play fade, then off"
                                }
                            },
                            {
                                "box": {
                                    "id": "obj-49",
                                    "maxclass": "message",
                                    "numinlets": 2,
                                    "numoutlets": 1,
                                    "outlettype": [ "" ],
                                    "patching_rect": [ 300.0, 316.0, 45.0, 22.0 ],
                                    "text": "1, 0 $1"
                                }
                            },
                            {
                                "box": {
                                    "id": "obj-47",
                                    "maxclass": "newobj",
                                    "numinlets": 3,
                                    "numoutlets": 2,
                                    "outlettype": [ "", "bang" ],
                                    "patching_rect": [ 300.0, 349.0, 93.0, 22.0 ],
                                    "text": "line 0. @grain 5"
                                }
                            },
                            {
                                "box": {
                                    "id": "obj-46",
                                    "maxclass": "newobj",
                                    "numinlets": 3,
                                    "numoutlets": 2,
                                    "outlettype": [ "", "bang" ],
                                    "patching_rect": [ 554.6666666666666, 452.0, 40.0, 22.0 ],
                                    "text": "line"
                                }
                            },
                            {
                                "box": {
                                    "id": "obj-45",
                                    "maxclass": "message",
                                    "numinlets": 2,
                                    "numoutlets": 1,
                                    "outlettype": [ "" ],
                                    "patching_rect": [ 555.3333333333333, 339.0, 45.0, 22.0 ],
                                    "text": "0, 1 $1"
                                }
                            },
                            {
                                "box": {
                                    "id": "obj-43",
                                    "maxclass": "newobj",
                                    "numinlets": 2,
                                    "numoutlets": 1,
                                    "outlettype": [ "int" ],
                                    "patching_rect": [ 300.0, 183.0, 29.5, 22.0 ],
                                    "text": "+ 1"
                                }
                            },
                            {
                                "box": {
                                    "id": "obj-42",
                                    "maxclass": "newobj",
                                    "numinlets": 2,
                                    "numoutlets": 2,
                                    "outlettype": [ "", "" ],
                                    "patching_rect": [ 300.0, 221.0, 139.0, 22.0 ],
                                    "text": "gate 2"
                                }
                            },
                            {
                                "box": {
                                    "id": "obj-41",
                                    "maxclass": "comment",
                                    "numinlets": 1,
                                    "numoutlets": 0,
                                    "patching_rect": [ 774.0, 143.0, 150.0, 20.0 ],
                                    "text": "will play or stop?"
                                }
                            },
                            {
                                "box": {
                                    "id": "obj-39",
                                    "maxclass": "message",
                                    "numinlets": 2,
                                    "numoutlets": 1,
                                    "outlettype": [ "" ],
                                    "patching_rect": [ 737.0, 142.0, 29.5, 22.0 ],
                                    "text": "$2"
                                }
                            },
                            {
                                "box": {
                                    "id": "obj-37",
                                    "maxclass": "newobj",
                                    "numinlets": 1,
                                    "numoutlets": 2,
                                    "outlettype": [ "", "" ],
                                    "patching_rect": [ 420.0, 94.0, 336.0, 22.0 ],
                                    "text": "t l l"
                                }
                            },
                            {
                                "box": {
                                    "id": "obj-36",
                                    "maxclass": "newobj",
                                    "numinlets": 2,
                                    "numoutlets": 1,
                                    "outlettype": [ "multichannelsignal" ],
                                    "patching_rect": [ 154.0, 1066.0, 165.0, 22.0 ],
                                    "text": "mc.*~ 1."
                                }
                            },
                            {
                                "box": {
                                    "color": [ 0.176470588235294, 1.0, 0.0, 1.0 ],
                                    "id": "obj-11",
                                    "maxclass": "newobj",
                                    "numinlets": 0,
                                    "numoutlets": 1,
                                    "outlettype": [ "" ],
                                    "patching_rect": [ 143.0, 370.0, 51.0, 22.0 ],
                                    "text": "r stopall"
                                }
                            },
                            {
                                "box": {
                                    "id": "obj-19",
                                    "maxclass": "comment",
                                    "numinlets": 1,
                                    "numoutlets": 0,
                                    "patching_rect": [ 241.0, 767.0, 103.0, 20.0 ],
                                    "text": "all files are stereo"
                                }
                            },
                            {
                                "box": {
                                    "id": "obj-17",
                                    "maxclass": "comment",
                                    "numinlets": 1,
                                    "numoutlets": 0,
                                    "patching_rect": [ 1110.0, 601.0, 73.0, 20.0 ],
                                    "text": "voice"
                                }
                            },
                            {
                                "box": {
                                    "id": "obj-13",
                                    "maxclass": "comment",
                                    "numinlets": 1,
                                    "numoutlets": 0,
                                    "patching_rect": [ 1110.0, 496.0, 22.0, 20.0 ],
                                    "text": "on"
                                }
                            },
                            {
                                "box": {
                                    "id": "obj-8",
                                    "maxclass": "newobj",
                                    "numinlets": 1,
                                    "numoutlets": 1,
                                    "outlettype": [ "" ],
                                    "patching_rect": [ 1040.0, 495.0, 63.0, 22.0 ],
                                    "text": "prepend 1"
                                }
                            },
                            {
                                "box": {
                                    "id": "obj-7",
                                    "maxclass": "newobj",
                                    "numinlets": 1,
                                    "numoutlets": 1,
                                    "outlettype": [ "" ],
                                    "patching_rect": [ 1040.0, 600.0, 63.0, 22.0 ],
                                    "text": "prepend 1"
                                }
                            },
                            {
                                "box": {
                                    "id": "obj-1",
                                    "linecount": 2,
                                    "maxclass": "newobj",
                                    "numinlets": 3,
                                    "numoutlets": 2,
                                    "outlettype": [ "", "" ],
                                    "patching_rect": [ 578.0, 526.0, 171.0, 35.0 ],
                                    "text": "combine folder 2D/ file @triggers 2"
                                }
                            },
                            {
                                "box": {
                                    "id": "obj-111",
                                    "maxclass": "message",
                                    "numinlets": 2,
                                    "numoutlets": 1,
                                    "outlettype": [ "" ],
                                    "patching_rect": [ 143.0, 426.0, 29.5, 22.0 ],
                                    "text": "0"
                                }
                            },
                            {
                                "box": {
                                    "id": "obj-109",
                                    "maxclass": "message",
                                    "numinlets": 2,
                                    "numoutlets": 1,
                                    "outlettype": [ "" ],
                                    "patching_rect": [ 578.0, 591.0, 52.0, 22.0 ],
                                    "text": "open $1"
                                }
                            },
                            {
                                "box": {
                                    "id": "obj-107",
                                    "maxclass": "newobj",
                                    "numinlets": 1,
                                    "numoutlets": 3,
                                    "outlettype": [ "int", "", "" ],
                                    "patching_rect": [ 420.0, 418.0, 639.0, 22.0 ],
                                    "text": "t 1 l l"
                                }
                            },
                            {
                                "box": {
                                    "id": "obj-95",
                                    "maxclass": "message",
                                    "numinlets": 2,
                                    "numoutlets": 1,
                                    "outlettype": [ "" ],
                                    "patching_rect": [ 487.66666666666663, 339.0, 48.0, 22.0 ],
                                    "text": "loop $1"
                                }
                            },
                            {
                                "box": {
                                    "id": "obj-90",
                                    "maxclass": "newobj",
                                    "numinlets": 1,
                                    "numoutlets": 8,
                                    "outlettype": [ "", "int", "int", "int", "int", "float", "int", "int" ],
                                    "patching_rect": [ 420.0, 282.0, 255.83333333333326, 22.0 ],
                                    "text": "unpack s i i i i f i i"
                                }
                            },
                            {
                                "box": {
                                    "color": [ 0.176470588235294, 1.0, 0.0, 1.0 ],
                                    "id": "obj-89",
                                    "maxclass": "newobj",
                                    "numinlets": 0,
                                    "numoutlets": 1,
                                    "outlettype": [ "" ],
                                    "patching_rect": [ 578.0, 495.0, 62.0, 22.0 ],
                                    "text": "r sf_folder"
                                }
                            },
                            {
                                "box": {
                                    "id": "obj-79",
                                    "maxclass": "comment",
                                    "numinlets": 1,
                                    "numoutlets": 0,
                                    "patching_rect": [ 685.0, 283.0, 191.0, 20.0 ],
                                    "text": "file play loop attenuation fade gain"
                                }
                            },
                            {
                                "box": {
                                    "id": "obj-76",
                                    "maxclass": "newobj",
                                    "numinlets": 2,
                                    "numoutlets": 3,
                                    "outlettype": [ "signal", "signal", "bang" ],
                                    "patching_rect": [ 154.0, 745.0, 76.0, 22.0 ],
                                    "text": "sfplay~ 2"
                                }
                            },
                            {
                                "box": {
                                    "comment": "",
                                    "id": "obj-112",
                                    "index": 1,
                                    "maxclass": "inlet",
                                    "numinlets": 0,
                                    "numoutlets": 1,
                                    "outlettype": [ "" ],
                                    "patching_rect": [ 420.0, 33.0, 30.0, 30.0 ]
                                }
                            },
                            {
                                "box": {
                                    "comment": "",
                                    "id": "obj-113",
                                    "index": 1,
                                    "maxclass": "outlet",
                                    "numinlets": 1,
                                    "numoutlets": 0,
                                    "patching_rect": [ 154.0, 1266.0, 30.0, 30.0 ]
                                }
                            }
                        ],
                        "lines": [
                            {
                                "patchline": {
                                    "destination": [ "obj-109", 0 ],
                                    "source": [ "obj-1", 0 ]
                                }
                            },
                            {
                                "patchline": {
                                    "destination": [ "obj-1", 2 ],
                                    "source": [ "obj-107", 1 ]
                                }
                            },
                            {
                                "patchline": {
                                    "color": [ 0.176470588235294, 1.0, 0.0, 1.0 ],
                                    "destination": [ "obj-27", 0 ],
                                    "source": [ "obj-107", 0 ]
                                }
                            },
                            {
                                "patchline": {
                                    "destination": [ "obj-8", 0 ],
                                    "source": [ "obj-107", 2 ]
                                }
                            },
                            {
                                "patchline": {
                                    "destination": [ "obj-76", 0 ],
                                    "midpoints": [ 587.5, 638.0, 163.5, 638.0 ],
                                    "source": [ "obj-109", 0 ]
                                }
                            },
                            {
                                "patchline": {
                                    "destination": [ "obj-111", 0 ],
                                    "source": [ "obj-11", 0 ]
                                }
                            },
                            {
                                "patchline": {
                                    "destination": [ "obj-23", 0 ],
                                    "source": [ "obj-111", 0 ]
                                }
                            },
                            {
                                "patchline": {
                                    "destination": [ "obj-37", 0 ],
                                    "source": [ "obj-112", 0 ]
                                }
                            },
                            {
                                "patchline": {
                                    "destination": [ "obj-111", 0 ],
                                    "source": [ "obj-12", 0 ]
                                }
                            },
                            {
                                "patchline": {
                                    "destination": [ "obj-7", 0 ],
                                    "source": [ "obj-14", 0 ]
                                }
                            },
                            {
                                "patchline": {
                                    "destination": [ "obj-3", 0 ],
                                    "source": [ "obj-15", 0 ]
                                }
                            },
                            {
                                "patchline": {
                                    "destination": [ "obj-10", 0 ],
                                    "source": [ "obj-16", 0 ]
                                }
                            },
                            {
                                "patchline": {
                                    "destination": [ "obj-28", 0 ],
                                    "disabled": 1,
                                    "source": [ "obj-16", 0 ]
                                }
                            },
                            {
                                "patchline": {
                                    "destination": [ "obj-16", 0 ],
                                    "midpoints": [ 497.16666666666663, 815.0, 230.0, 815.0 ],
                                    "source": [ "obj-18", 0 ]
                                }
                            },
                            {
                                "patchline": {
                                    "destination": [ "obj-14", 0 ],
                                    "source": [ "obj-2", 0 ]
                                }
                            },
                            {
                                "patchline": {
                                    "destination": [ "obj-20", 0 ],
                                    "source": [ "obj-23", 0 ]
                                }
                            },
                            {
                                "patchline": {
                                    "color": [ 1.0, 0.0, 0.0, 1.0 ],
                                    "destination": [ "obj-7", 0 ],
                                    "midpoints": [ 163.0, 577.0, 1049.5, 577.0 ],
                                    "order": 0,
                                    "source": [ "obj-23", 1 ]
                                }
                            },
                            {
                                "patchline": {
                                    "color": [ 1.0, 0.0, 0.0, 1.0 ],
                                    "destination": [ "obj-76", 0 ],
                                    "midpoints": [ 163.0, 577.0, 163.5, 577.0 ],
                                    "order": 1,
                                    "source": [ "obj-23", 1 ]
                                }
                            },
                            {
                                "patchline": {
                                    "destination": [ "obj-25", 0 ],
                                    "source": [ "obj-24", 0 ]
                                }
                            },
                            {
                                "patchline": {
                                    "destination": [ "obj-21", 0 ],
                                    "source": [ "obj-25", 1 ]
                                }
                            },
                            {
                                "patchline": {
                                    "destination": [ "obj-21", 0 ],
                                    "source": [ "obj-25", 0 ]
                                }
                            },
                            {
                                "patchline": {
                                    "color": [ 0.176470588235294, 1.0, 0.0, 1.0 ],
                                    "destination": [ "obj-76", 0 ],
                                    "midpoints": [ 429.5, 636.0, 163.5, 636.0 ],
                                    "source": [ "obj-27", 0 ]
                                }
                            },
                            {
                                "patchline": {
                                    "destination": [ "obj-4", 0 ],
                                    "source": [ "obj-29", 0 ]
                                }
                            },
                            {
                                "patchline": {
                                    "destination": [ "obj-36", 0 ],
                                    "source": [ "obj-30", 0 ]
                                }
                            },
                            {
                                "patchline": {
                                    "destination": [ "obj-6", 0 ],
                                    "source": [ "obj-36", 0 ]
                                }
                            },
                            {
                                "patchline": {
                                    "destination": [ "obj-39", 0 ],
                                    "source": [ "obj-37", 1 ]
                                }
                            },
                            {
                                "patchline": {
                                    "destination": [ "obj-42", 1 ],
                                    "source": [ "obj-37", 0 ]
                                }
                            },
                            {
                                "patchline": {
                                    "destination": [ "obj-15", 0 ],
                                    "order": 0,
                                    "source": [ "obj-39", 0 ]
                                }
                            },
                            {
                                "patchline": {
                                    "destination": [ "obj-43", 0 ],
                                    "midpoints": [ 746.5, 178.0, 309.5, 178.0 ],
                                    "order": 1,
                                    "source": [ "obj-39", 0 ]
                                }
                            },
                            {
                                "patchline": {
                                    "destination": [ "obj-49", 0 ],
                                    "source": [ "obj-4", 0 ]
                                }
                            },
                            {
                                "patchline": {
                                    "destination": [ "obj-29", 0 ],
                                    "source": [ "obj-42", 0 ]
                                }
                            },
                            {
                                "patchline": {
                                    "destination": [ "obj-90", 0 ],
                                    "source": [ "obj-42", 1 ]
                                }
                            },
                            {
                                "patchline": {
                                    "destination": [ "obj-42", 0 ],
                                    "source": [ "obj-43", 0 ]
                                }
                            },
                            {
                                "patchline": {
                                    "destination": [ "obj-46", 0 ],
                                    "source": [ "obj-45", 0 ]
                                }
                            },
                            {
                                "patchline": {
                                    "destination": [ "obj-36", 1 ],
                                    "midpoints": [ 564.1666666666666, 936.0, 309.5, 936.0 ],
                                    "source": [ "obj-46", 0 ]
                                }
                            },
                            {
                                "patchline": {
                                    "destination": [ "obj-111", 0 ],
                                    "midpoints": [ 383.5, 408.0, 152.5, 408.0 ],
                                    "source": [ "obj-47", 1 ]
                                }
                            },
                            {
                                "patchline": {
                                    "destination": [ "obj-36", 1 ],
                                    "source": [ "obj-47", 0 ]
                                }
                            },
                            {
                                "patchline": {
                                    "destination": [ "obj-47", 0 ],
                                    "source": [ "obj-49", 0 ]
                                }
                            },
                            {
                                "patchline": {
                                    "destination": [ "obj-113", 0 ],
                                    "source": [ "obj-6", 0 ]
                                }
                            },
                            {
                                "patchline": {
                                    "destination": [ "obj-24", 0 ],
                                    "midpoints": [ 1049.5, 695.0, 1352.5, 695.0 ],
                                    "source": [ "obj-7", 0 ]
                                }
                            },
                            {
                                "patchline": {
                                    "destination": [ "obj-16", 1 ],
                                    "source": [ "obj-76", 2 ]
                                }
                            },
                            {
                                "patchline": {
                                    "destination": [ "obj-30", 3 ],
                                    "order": 0,
                                    "source": [ "obj-76", 1 ]
                                }
                            },
                            {
                                "patchline": {
                                    "destination": [ "obj-30", 1 ],
                                    "order": 1,
                                    "source": [ "obj-76", 1 ]
                                }
                            },
                            {
                                "patchline": {
                                    "destination": [ "obj-30", 2 ],
                                    "order": 0,
                                    "source": [ "obj-76", 0 ]
                                }
                            },
                            {
                                "patchline": {
                                    "destination": [ "obj-30", 0 ],
                                    "order": 1,
                                    "source": [ "obj-76", 0 ]
                                }
                            },
                            {
                                "patchline": {
                                    "destination": [ "obj-7", 0 ],
                                    "source": [ "obj-8", 0 ]
                                }
                            },
                            {
                                "patchline": {
                                    "destination": [ "obj-1", 0 ],
                                    "source": [ "obj-89", 0 ]
                                }
                            },
                            {
                                "patchline": {
                                    "destination": [ "obj-6", 1 ],
                                    "source": [ "obj-9", 0 ]
                                }
                            },
                            {
                                "patchline": {
                                    "destination": [ "obj-107", 0 ],
                                    "source": [ "obj-90", 0 ]
                                }
                            },
                            {
                                "patchline": {
                                    "destination": [ "obj-18", 0 ],
                                    "order": 0,
                                    "source": [ "obj-90", 2 ]
                                }
                            },
                            {
                                "patchline": {
                                    "destination": [ "obj-27", 1 ],
                                    "midpoints": [ 666.3333333333333, 403.0, 464.5, 403.0 ],
                                    "source": [ "obj-90", 7 ]
                                }
                            },
                            {
                                "patchline": {
                                    "destination": [ "obj-45", 0 ],
                                    "source": [ "obj-90", 4 ]
                                }
                            },
                            {
                                "patchline": {
                                    "destination": [ "obj-9", 0 ],
                                    "source": [ "obj-90", 5 ]
                                }
                            },
                            {
                                "patchline": {
                                    "destination": [ "obj-95", 0 ],
                                    "order": 1,
                                    "source": [ "obj-90", 2 ]
                                }
                            },
                            {
                                "patchline": {
                                    "destination": [ "obj-76", 0 ],
                                    "midpoints": [ 497.16666666666663, 637.0, 163.5, 637.0 ],
                                    "source": [ "obj-95", 0 ]
                                }
                            }
                        ]
                    },
                    "patching_rect": [ 63.0, 165.0, 56.0, 22.0 ],
                    "text": "p playfile"
                }
            }
        ],
        "lines": [
            {
                "patchline": {
                    "destination": [ "obj-12", 0 ],
                    "source": [ "obj-114", 0 ]
                }
            },
            {
                "patchline": {
                    "destination": [ "obj-43", 0 ],
                    "midpoints": [ 109.5, 782.0, 1039.5, 782.0 ],
                    "source": [ "obj-114", 1 ]
                }
            },
            {
                "patchline": {
                    "destination": [ "obj-14", 0 ],
                    "source": [ "obj-16", 0 ]
                }
            },
            {
                "patchline": {
                    "destination": [ "obj-23", 0 ],
                    "source": [ "obj-16", 1 ]
                }
            },
            {
                "patchline": {
                    "destination": [ "obj-22", 0 ],
                    "source": [ "obj-19", 0 ]
                }
            },
            {
                "patchline": {
                    "destination": [ "obj-16", 0 ],
                    "source": [ "obj-21", 0 ]
                }
            },
            {
                "patchline": {
                    "destination": [ "obj-21", 0 ],
                    "source": [ "obj-22", 0 ]
                }
            },
            {
                "patchline": {
                    "destination": [ "obj-21", 0 ],
                    "source": [ "obj-27", 0 ]
                }
            },
            {
                "patchline": {
                    "destination": [ "obj-16", 0 ],
                    "source": [ "obj-3", 0 ]
                }
            },
            {
                "patchline": {
                    "destination": [ "obj-46", 0 ],
                    "source": [ "obj-37", 0 ]
                }
            },
            {
                "patchline": {
                    "destination": [ "obj-49", 0 ],
                    "source": [ "obj-40", 0 ]
                }
            },
            {
                "patchline": {
                    "destination": [ "obj-5", 0 ],
                    "source": [ "obj-44", 0 ]
                }
            },
            {
                "patchline": {
                    "destination": [ "obj-40", 0 ],
                    "source": [ "obj-46", 0 ]
                }
            },
            {
                "patchline": {
                    "destination": [ "obj-51", 0 ],
                    "source": [ "obj-46", 1 ]
                }
            },
            {
                "patchline": {
                    "destination": [ "obj-44", 0 ],
                    "source": [ "obj-49", 0 ]
                }
            },
            {
                "patchline": {
                    "destination": [ "obj-43", 0 ],
                    "source": [ "obj-5", 1 ]
                }
            },
            {
                "patchline": {
                    "destination": [ "obj-43", 0 ],
                    "source": [ "obj-5", 0 ]
                }
            },
            {
                "patchline": {
                    "destination": [ "obj-49", 0 ],
                    "source": [ "obj-51", 0 ]
                }
            },
            {
                "patchline": {
                    "destination": [ "obj-114", 0 ],
                    "source": [ "obj-8", 0 ]
                }
            }
        ]
    }
}