{
    "patcher": {
        "fileversion": 1,
        "appversion": {
            "major": 9,
            "minor": 1,
            "revision": 2,
            "architecture": "x64",
            "modernui": 1
        },
        "classnamespace": "box",
        "rect": [ 59.0, 107.0, 1000.0, 780.0 ],
        "boxes": [
            {
                "box": {
                    "id": "obj-9",
                    "linecount": 2,
                    "maxclass": "comment",
                    "numinlets": 1,
                    "numoutlets": 0,
                    "patching_rect": [ 615.8394779999999, 38.0, 150.0, 34.0 ],
                    "text": "use ALL instead of stripname"
                }
            },
            {
                "box": {
                    "id": "obj-7",
                    "maxclass": "message",
                    "numinlets": 2,
                    "numoutlets": 1,
                    "outlettype": [ "" ],
                    "patching_rect": [ 772.0, 253.0, 29.5, 22.0 ],
                    "text": "all"
                }
            },
            {
                "box": {
                    "id": "obj-5",
                    "maxclass": "newobj",
                    "numinlets": 1,
                    "numoutlets": 2,
                    "outlettype": [ "bang", "int" ],
                    "patching_rect": [ 772.0, 191.0, 32.0, 22.0 ],
                    "text": "t b 0"
                }
            },
            {
                "box": {
                    "id": "obj-4",
                    "maxclass": "newobj",
                    "numinlets": 1,
                    "numoutlets": 1,
                    "outlettype": [ "int" ],
                    "patching_rect": [ 817.0, 191.0, 22.0, 22.0 ],
                    "text": "t 1"
                }
            },
            {
                "box": {
                    "id": "obj-3",
                    "maxclass": "newobj",
                    "numinlets": 3,
                    "numoutlets": 3,
                    "outlettype": [ "bang", "bang", "" ],
                    "patching_rect": [ 772.0, 114.0, 109.0, 22.0 ],
                    "text": "sel 1 0"
                }
            },
            {
                "box": {
                    "id": "obj-2",
                    "maxclass": "newobj",
                    "numinlets": 2,
                    "numoutlets": 1,
                    "outlettype": [ "" ],
                    "patching_rect": [ 766.0, 445.0, 52.0, 22.0 ],
                    "text": "gate 1 1"
                }
            },
            {
                "box": {
                    "comment": "",
                    "id": "obj-1",
                    "index": 0,
                    "maxclass": "inlet",
                    "numinlets": 0,
                    "numoutlets": 1,
                    "outlettype": [ "" ],
                    "patching_rect": [ 771.5, 40.0, 30.0, 30.0 ]
                }
            },
            {
                "box": {
                    "id": "obj-96",
                    "maxclass": "message",
                    "numinlets": 2,
                    "numoutlets": 1,
                    "outlettype": [ "" ],
                    "patching_rect": [ 50.339477999999986, 351.0, 37.0, 22.0 ],
                    "text": "apply"
                }
            },
            {
                "box": {
                    "id": "obj-94",
                    "maxclass": "newobj",
                    "numinlets": 1,
                    "numoutlets": 2,
                    "outlettype": [ "bang", "" ],
                    "patching_rect": [ 50.339477999999986, 258.0, 119.0, 22.0 ],
                    "text": "t b l"
                }
            },
            {
                "box": {
                    "color": [ 0.949019607843137, 0.0, 1.0, 1.0 ],
                    "id": "obj-93",
                    "maxclass": "newobj",
                    "numinlets": 1,
                    "numoutlets": 1,
                    "outlettype": [ "" ],
                    "patcher": {
                        "fileversion": 1,
                        "appversion": {
                            "major": 9,
                            "minor": 1,
                            "revision": 2,
                            "architecture": "x64",
                            "modernui": 1
                        },
                        "classnamespace": "box",
                        "rect": [ 511.0, 140.0, 1000.0, 780.0 ],
                        "boxes": [
                            {
                                "box": {
                                    "id": "obj-10",
                                    "maxclass": "newobj",
                                    "numinlets": 1,
                                    "numoutlets": 1,
                                    "outlettype": [ "" ],
                                    "patching_rect": [ 218.0, 623.0, 82.0, 22.0 ],
                                    "text": "prepend color"
                                }
                            },
                            {
                                "box": {
                                    "id": "obj-7",
                                    "maxclass": "comment",
                                    "numinlets": 1,
                                    "numoutlets": 0,
                                    "patching_rect": [ 145.0, 946.0, 150.0, 20.0 ]
                                }
                            },
                            {
                                "box": {
                                    "id": "obj-4",
                                    "maxclass": "newobj",
                                    "numinlets": 1,
                                    "numoutlets": 1,
                                    "outlettype": [ "" ],
                                    "patching_rect": [ 190.0, 571.0, 111.0, 22.0 ],
                                    "text": "prepend brightness"
                                }
                            },
                            {
                                "box": {
                                    "id": "obj-3",
                                    "maxclass": "newobj",
                                    "numinlets": 2,
                                    "numoutlets": 2,
                                    "outlettype": [ "", "" ],
                                    "patching_rect": [ 190.0, 530.0, 47.0, 22.0 ],
                                    "text": "zl.nth 1"
                                }
                            },
                            {
                                "box": {
                                    "id": "obj-2",
                                    "maxclass": "newobj",
                                    "numinlets": 1,
                                    "numoutlets": 1,
                                    "outlettype": [ "" ],
                                    "patching_rect": [ 162.0, 493.0, 86.0, 22.0 ],
                                    "text": "prepend mode"
                                }
                            },
                            {
                                "box": {
                                    "id": "obj-1",
                                    "maxclass": "newobj",
                                    "numinlets": 2,
                                    "numoutlets": 2,
                                    "outlettype": [ "", "" ],
                                    "patching_rect": [ 162.0, 448.0, 47.0, 22.0 ],
                                    "text": "zl.nth 1"
                                }
                            },
                            {
                                "box": {
                                    "id": "obj-90",
                                    "maxclass": "newobj",
                                    "numinlets": 1,
                                    "numoutlets": 1,
                                    "outlettype": [ "" ],
                                    "patching_rect": [ 134.0, 397.0, 101.0, 22.0 ],
                                    "text": "prepend direction"
                                }
                            },
                            {
                                "box": {
                                    "id": "obj-89",
                                    "maxclass": "newobj",
                                    "numinlets": 2,
                                    "numoutlets": 2,
                                    "outlettype": [ "", "" ],
                                    "patching_rect": [ 134.0, 360.0, 47.0, 22.0 ],
                                    "text": "zl.nth 1"
                                }
                            },
                            {
                                "box": {
                                    "id": "obj-85",
                                    "maxclass": "newobj",
                                    "numinlets": 1,
                                    "numoutlets": 1,
                                    "outlettype": [ "" ],
                                    "patching_rect": [ 106.0, 328.0, 89.0, 22.0 ],
                                    "text": "prepend speed"
                                }
                            },
                            {
                                "box": {
                                    "id": "obj-82",
                                    "maxclass": "newobj",
                                    "numinlets": 2,
                                    "numoutlets": 2,
                                    "outlettype": [ "", "" ],
                                    "patching_rect": [ 106.0, 284.0, 47.0, 22.0 ],
                                    "text": "zl.nth 1"
                                }
                            },
                            {
                                "box": {
                                    "id": "obj-81",
                                    "maxclass": "newobj",
                                    "numinlets": 1,
                                    "numoutlets": 1,
                                    "outlettype": [ "" ],
                                    "patching_rect": [ 78.0, 234.0, 79.0, 22.0 ],
                                    "text": "prepend fade"
                                }
                            },
                            {
                                "box": {
                                    "id": "obj-80",
                                    "maxclass": "newobj",
                                    "numinlets": 2,
                                    "numoutlets": 2,
                                    "outlettype": [ "", "" ],
                                    "patching_rect": [ 78.0, 188.0, 47.0, 22.0 ],
                                    "text": "zl.nth 1"
                                }
                            },
                            {
                                "box": {
                                    "id": "obj-79",
                                    "maxclass": "newobj",
                                    "numinlets": 1,
                                    "numoutlets": 1,
                                    "outlettype": [ "" ],
                                    "patching_rect": [ 50.0, 141.0, 79.0, 22.0 ],
                                    "text": "prepend jitter"
                                }
                            },
                            {
                                "box": {
                                    "id": "obj-69",
                                    "maxclass": "newobj",
                                    "numinlets": 2,
                                    "numoutlets": 2,
                                    "outlettype": [ "", "" ],
                                    "patching_rect": [ 50.0, 100.0, 47.0, 22.0 ],
                                    "text": "zl.nth 1"
                                }
                            },
                            {
                                "box": {
                                    "comment": "",
                                    "id": "obj-91",
                                    "index": 1,
                                    "maxclass": "inlet",
                                    "numinlets": 0,
                                    "numoutlets": 1,
                                    "outlettype": [ "" ],
                                    "patching_rect": [ 50.0, 40.0, 30.0, 30.0 ]
                                }
                            },
                            {
                                "box": {
                                    "comment": "",
                                    "id": "obj-92",
                                    "index": 1,
                                    "maxclass": "outlet",
                                    "numinlets": 1,
                                    "numoutlets": 0,
                                    "patching_rect": [ 60.0, 847.0, 30.0, 30.0 ]
                                }
                            }
                        ],
                        "lines": [
                            {
                                "patchline": {
                                    "destination": [ "obj-2", 0 ],
                                    "source": [ "obj-1", 0 ]
                                }
                            },
                            {
                                "patchline": {
                                    "destination": [ "obj-3", 0 ],
                                    "source": [ "obj-1", 1 ]
                                }
                            },
                            {
                                "patchline": {
                                    "destination": [ "obj-92", 0 ],
                                    "source": [ "obj-10", 0 ]
                                }
                            },
                            {
                                "patchline": {
                                    "destination": [ "obj-92", 0 ],
                                    "source": [ "obj-2", 0 ]
                                }
                            },
                            {
                                "patchline": {
                                    "destination": [ "obj-10", 0 ],
                                    "source": [ "obj-3", 1 ]
                                }
                            },
                            {
                                "patchline": {
                                    "destination": [ "obj-4", 0 ],
                                    "source": [ "obj-3", 0 ]
                                }
                            },
                            {
                                "patchline": {
                                    "destination": [ "obj-92", 0 ],
                                    "source": [ "obj-4", 0 ]
                                }
                            },
                            {
                                "patchline": {
                                    "destination": [ "obj-79", 0 ],
                                    "source": [ "obj-69", 0 ]
                                }
                            },
                            {
                                "patchline": {
                                    "destination": [ "obj-80", 0 ],
                                    "source": [ "obj-69", 1 ]
                                }
                            },
                            {
                                "patchline": {
                                    "destination": [ "obj-92", 0 ],
                                    "source": [ "obj-79", 0 ]
                                }
                            },
                            {
                                "patchline": {
                                    "destination": [ "obj-81", 0 ],
                                    "source": [ "obj-80", 0 ]
                                }
                            },
                            {
                                "patchline": {
                                    "destination": [ "obj-82", 0 ],
                                    "source": [ "obj-80", 1 ]
                                }
                            },
                            {
                                "patchline": {
                                    "destination": [ "obj-92", 0 ],
                                    "source": [ "obj-81", 0 ]
                                }
                            },
                            {
                                "patchline": {
                                    "destination": [ "obj-85", 0 ],
                                    "source": [ "obj-82", 0 ]
                                }
                            },
                            {
                                "patchline": {
                                    "destination": [ "obj-89", 0 ],
                                    "source": [ "obj-82", 1 ]
                                }
                            },
                            {
                                "patchline": {
                                    "destination": [ "obj-92", 0 ],
                                    "source": [ "obj-85", 0 ]
                                }
                            },
                            {
                                "patchline": {
                                    "destination": [ "obj-1", 0 ],
                                    "source": [ "obj-89", 1 ]
                                }
                            },
                            {
                                "patchline": {
                                    "destination": [ "obj-90", 0 ],
                                    "source": [ "obj-89", 0 ]
                                }
                            },
                            {
                                "patchline": {
                                    "destination": [ "obj-92", 0 ],
                                    "source": [ "obj-90", 0 ]
                                }
                            },
                            {
                                "patchline": {
                                    "destination": [ "obj-69", 0 ],
                                    "source": [ "obj-91", 0 ]
                                }
                            }
                        ]
                    },
                    "patching_rect": [ 150.33947799999999, 351.0, 81.0, 22.0 ],
                    "text": "p set_params"
                }
            },
            {
                "box": {
                    "id": "obj-77",
                    "maxclass": "comment",
                    "numinlets": 1,
                    "numoutlets": 0,
                    "patching_rect": [ 820.0, 305.0, 61.0, 20.0 ],
                    "text": "stripname"
                }
            },
            {
                "box": {
                    "id": "obj-68",
                    "maxclass": "newobj",
                    "numinlets": 2,
                    "numoutlets": 2,
                    "outlettype": [ "", "" ],
                    "patching_rect": [ 150.0, 304.0, 668.0, 22.0 ],
                    "text": "zl.ecils 1"
                }
            },
            {
                "box": {
                    "id": "obj-65",
                    "maxclass": "message",
                    "numinlets": 2,
                    "numoutlets": 1,
                    "outlettype": [ "" ],
                    "patching_rect": [ 766.0, 498.0, 41.0, 22.0 ],
                    "text": "set $1"
                }
            },
            {
                "box": {
                    "id": "obj-63",
                    "maxclass": "newobj",
                    "numinlets": 1,
                    "numoutlets": 1,
                    "outlettype": [ "" ],
                    "patching_rect": [ 664.339478, 605.0, 53.0, 22.0 ],
                    "text": "prepend"
                }
            },
            {
                "box": {
                    "id": "obj-51",
                    "maxclass": "newobj",
                    "numinlets": 1,
                    "numoutlets": 1,
                    "outlettype": [ "" ],
                    "patching_rect": [ 50.339477999999986, 196.0, 71.0, 22.0 ],
                    "text": "fromsymbol"
                }
            },
            {
                "box": {
                    "id": "obj-49",
                    "maxclass": "newobj",
                    "numinlets": 2,
                    "numoutlets": 2,
                    "outlettype": [ "", "" ],
                    "patching_rect": [ 50.339477999999986, 157.0, 83.0, 22.0 ],
                    "text": "route /params"
                }
            },
            {
                "box": {
                    "id": "obj-46",
                    "maxclass": "newobj",
                    "numinlets": 1,
                    "numoutlets": 3,
                    "outlettype": [ "", "", "FullPacket" ],
                    "patching_rect": [ 50.339477999999986, 115.0, 106.0, 22.0 ],
                    "text": "o.route /apply /live"
                }
            },
            {
                "box": {
                    "comment": "",
                    "id": "obj-99",
                    "index": 0,
                    "maxclass": "inlet",
                    "numinlets": 0,
                    "numoutlets": 1,
                    "outlettype": [ "" ],
                    "patching_rect": [ 50.339477999999986, 40.0, 30.0, 30.0 ]
                }
            },
            {
                "box": {
                    "comment": "",
                    "id": "obj-100",
                    "index": 0,
                    "maxclass": "outlet",
                    "numinlets": 1,
                    "numoutlets": 0,
                    "patching_rect": [ 664.339478, 687.0, 30.0, 30.0 ]
                }
            }
        ],
        "lines": [
            {
                "patchline": {
                    "destination": [ "obj-3", 0 ],
                    "source": [ "obj-1", 0 ]
                }
            },
            {
                "patchline": {
                    "destination": [ "obj-65", 0 ],
                    "source": [ "obj-2", 0 ]
                }
            },
            {
                "patchline": {
                    "destination": [ "obj-4", 0 ],
                    "source": [ "obj-3", 1 ]
                }
            },
            {
                "patchline": {
                    "destination": [ "obj-5", 0 ],
                    "source": [ "obj-3", 0 ]
                }
            },
            {
                "patchline": {
                    "destination": [ "obj-2", 0 ],
                    "source": [ "obj-4", 0 ]
                }
            },
            {
                "patchline": {
                    "destination": [ "obj-49", 0 ],
                    "source": [ "obj-46", 0 ]
                }
            },
            {
                "patchline": {
                    "destination": [ "obj-51", 0 ],
                    "source": [ "obj-49", 0 ]
                }
            },
            {
                "patchline": {
                    "destination": [ "obj-2", 0 ],
                    "source": [ "obj-5", 1 ]
                }
            },
            {
                "patchline": {
                    "destination": [ "obj-7", 0 ],
                    "source": [ "obj-5", 0 ]
                }
            },
            {
                "patchline": {
                    "destination": [ "obj-94", 0 ],
                    "source": [ "obj-51", 0 ]
                }
            },
            {
                "patchline": {
                    "destination": [ "obj-100", 0 ],
                    "source": [ "obj-63", 0 ]
                }
            },
            {
                "patchline": {
                    "destination": [ "obj-63", 0 ],
                    "midpoints": [ 775.5, 591.0, 673.839478, 591.0 ],
                    "source": [ "obj-65", 0 ]
                }
            },
            {
                "patchline": {
                    "destination": [ "obj-2", 1 ],
                    "source": [ "obj-68", 1 ]
                }
            },
            {
                "patchline": {
                    "destination": [ "obj-93", 0 ],
                    "source": [ "obj-68", 0 ]
                }
            },
            {
                "patchline": {
                    "destination": [ "obj-65", 0 ],
                    "source": [ "obj-7", 0 ]
                }
            },
            {
                "patchline": {
                    "destination": [ "obj-63", 0 ],
                    "midpoints": [ 159.83947799999999, 393.0, 673.839478, 393.0 ],
                    "source": [ "obj-93", 0 ]
                }
            },
            {
                "patchline": {
                    "destination": [ "obj-68", 0 ],
                    "source": [ "obj-94", 1 ]
                }
            },
            {
                "patchline": {
                    "destination": [ "obj-96", 0 ],
                    "source": [ "obj-94", 0 ]
                }
            },
            {
                "patchline": {
                    "destination": [ "obj-63", 0 ],
                    "midpoints": [ 59.839477999999986, 429.0, 673.839478, 429.0 ],
                    "source": [ "obj-96", 0 ]
                }
            },
            {
                "patchline": {
                    "destination": [ "obj-46", 0 ],
                    "source": [ "obj-99", 0 ]
                }
            }
        ],
        "autosave": 0
    }
}